<svg xmlns="http://www.w3.org/2000/svg" width="960" height="580" viewBox="0 0 960 580" role="img" aria-labelledby="title desc">
<title id="title">Downloads by Platform</title>
<desc id="desc">JRickey/BattleShip has 29,091 release asset downloads in the current GitHub API data.</desc>
<style>
svg { font-family: -apple-system, BlinkMacSystemFont, 'Segoe UI', sans-serif; }
.surface { fill: #ffffff; stroke: #d0d7de; }
.plot-bg { fill: #f6f8fa; }
.title { fill: #24292f; font-size: 24px; font-weight: 700; }
.subtitle { fill: #57606a; font-size: 14px; }
.axis { fill: #57606a; font-size: 12px; }
.grid { stroke: #d8dee4; stroke-width: 1; }
.legend { fill: #24292f; font-size: 13px; }
.stat { fill: #24292f; font-size: 22px; font-weight: 700; }
.stat-label { fill: #57606a; font-size: 12px; }
</style>
<rect class="surface" x="0.5" y="0.5" width="959" height="579" rx="10"/>
<text class="title" x="36" y="40">Downloads by Platform</text>
<text class="subtitle" x="36" y="64">Categorical x axis by release tag; US is lighter, JP is darker</text>
<text class="stat" x="902" y="39" text-anchor="end">29,091</text>
<text class="stat-label" x="902" y="61" text-anchor="end">downloads across 31 releases</text>
<rect class="plot-bg" x="72" y="112" width="840" height="250" rx="6"/>
<line class="grid" x1="72" y1="362.00" x2="912" y2="362.00"/>
<text class="axis" x="60" y="366.00" text-anchor="end">0</text>
<line class="grid" x1="72" y1="299.50" x2="912" y2="299.50"/>
<text class="axis" x="60" y="303.50" text-anchor="end">7.5k</text>
<line class="grid" x1="72" y1="237.00" x2="912" y2="237.00"/>
<text class="axis" x="60" y="241.00" text-anchor="end">15k</text>
<line class="grid" x1="72" y1="174.50" x2="912" y2="174.50"/>
<text class="axis" x="60" y="178.50" text-anchor="end">22.5k</text>
<line class="grid" x1="72" y1="112.00" x2="912" y2="112.00"/>
<text class="axis" x="60" y="116.00" text-anchor="end">30k</text>
<text class="axis" x="72.00" y="404" text-anchor="end" transform="rotate(-35 72.00 404)">v0.3.2</text>
<text class="axis" x="184.00" y="404" text-anchor="end" transform="rotate(-35 184.00 404)">v0.5.1-beta</text>
<text class="axis" x="296.00" y="404" text-anchor="end" transform="rotate(-35 296.00 404)">v0.7.2-beta-hotfix</text>
<text class="axis" x="408.00" y="404" text-anchor="end" transform="rotate(-35 408.00 404)">v0.7.4-beta</text>
<text class="axis" x="520.00" y="404" text-anchor="end" transform="rotate(-35 520.00 404)">v0.8.1-beta</text>
<text class="axis" x="632.00" y="404" text-anchor="end" transform="rotate(-35 632.00 404)">v0.9.1-beta</text>
<text class="axis" x="744.00" y="404" text-anchor="end" transform="rotate(-35 744.00 404)">v1.1</text>
<text class="axis" x="856.00" y="404" text-anchor="end" transform="rotate(-35 856.00 404)">v1.4</text>
<text class="axis" x="912.00" y="404" text-anchor="end" transform="rotate(-35 912.00 404)">v1.5</text>
<path d="M 72.00 361.68 L 100.00 361.58 L 128.00 360.99 L 156.00 360.84 L 184.00 360.39 L 212.00 360.32 L 240.00 360.15 L 268.00 360.07 L 296.00 360.02 L 324.00 359.94 L 352.00 359.86 L 380.00 359.68 L 408.00 359.64 L 436.00 359.55 L 464.00 359.51 L 492.00 359.22 L 520.00 359.12 L 548.00 359.04 L 576.00 358.64 L 604.00 358.14 L 632.00 357.98 L 660.00 357.88 L 688.00 357.77 L 716.00 357.17 L 744.00 356.17 L 772.00 356.02 L 800.00 355.31 L 828.00 354.57 L 856.00 354.08 L 884.00 352.82 L 912.00 352.74 L 912.00 362.00 L 884.00 362.00 L 856.00 362.00 L 828.00 362.00 L 800.00 362.00 L 772.00 362.00 L 744.00 362.00 L 716.00 362.00 L 688.00 362.00 L 660.00 362.00 L 632.00 362.00 L 604.00 362.00 L 576.00 362.00 L 548.00 362.00 L 520.00 362.00 L 492.00 362.00 L 464.00 362.00 L 436.00 362.00 L 408.00 362.00 L 380.00 362.00 L 352.00 362.00 L 324.00 362.00 L 296.00 362.00 L 268.00 362.00 L 240.00 362.00 L 212.00 362.00 L 184.00 362.00 L 156.00 362.00 L 128.00 362.00 L 100.00 362.00 L 72.00 362.00 Z" fill="#69b7ff" fill-opacity="0.78"/>
<path d="M 72.00 361.68 L 100.00 361.58 L 128.00 360.99 L 156.00 360.84 L 184.00 360.39 L 212.00 360.32 L 240.00 360.15 L 268.00 360.07 L 296.00 360.02 L 324.00 359.94 L 352.00 359.86 L 380.00 359.68 L 408.00 359.64 L 436.00 359.55 L 464.00 359.51 L 492.00 359.22 L 520.00 359.12 L 548.00 359.04 L 576.00 358.64 L 604.00 358.14 L 632.00 357.98 L 660.00 357.88 L 688.00 357.77 L 716.00 357.17 L 744.00 356.17 L 772.00 356.02 L 800.00 355.31 L 828.00 354.57 L 856.00 354.08 L 884.00 352.82 L 912.00 352.74" fill="none" stroke="#69b7ff" stroke-width="1.5" stroke-opacity="0.95" stroke-linejoin="round" stroke-linecap="round"/>
<path d="M 72.00 361.68 L 100.00 361.58 L 128.00 360.99 L 156.00 360.84 L 184.00 360.39 L 212.00 360.32 L 240.00 360.15 L 268.00 360.07 L 296.00 360.02 L 324.00 359.94 L 352.00 359.86 L 380.00 359.68 L 408.00 359.64 L 436.00 359.55 L 464.00 359.51 L 492.00 359.22 L 520.00 359.12 L 548.00 359.04 L 576.00 358.64 L 604.00 358.14 L 632.00 357.98 L 660.00 357.88 L 688.00 357.70 L 716.00 356.63 L 744.00 355.14 L 772.00 354.93 L 800.00 353.88 L 828.00 352.53 L 856.00 351.56 L 884.00 349.51 L 912.00 349.41 L 912.00 352.74 L 884.00 352.82 L 856.00 354.08 L 828.00 354.57 L 800.00 355.31 L 772.00 356.02 L 744.00 356.17 L 716.00 357.17 L 688.00 357.77 L 660.00 357.88 L 632.00 357.98 L 604.00 358.14 L 576.00 358.64 L 548.00 359.04 L 520.00 359.12 L 492.00 359.22 L 464.00 359.51 L 436.00 359.55 L 408.00 359.64 L 380.00 359.68 L 352.00 359.86 L 324.00 359.94 L 296.00 360.02 L 268.00 360.07 L 240.00 360.15 L 212.00 360.32 L 184.00 360.39 L 156.00 360.84 L 128.00 360.99 L 100.00 361.58 L 72.00 361.68 Z" fill="#0b6fd3" fill-opacity="0.78"/>
<path d="M 72.00 361.68 L 100.00 361.58 L 128.00 360.99 L 156.00 360.84 L 184.00 360.39 L 212.00 360.32 L 240.00 360.15 L 268.00 360.07 L 296.00 360.02 L 324.00 359.94 L 352.00 359.86 L 380.00 359.68 L 408.00 359.64 L 436.00 359.55 L 464.00 359.51 L 492.00 359.22 L 520.00 359.12 L 548.00 359.04 L 576.00 358.64 L 604.00 358.14 L 632.00 357.98 L 660.00 357.88 L 688.00 357.70 L 716.00 356.63 L 744.00 355.14 L 772.00 354.93 L 800.00 353.88 L 828.00 352.53 L 856.00 351.56 L 884.00 349.51 L 912.00 349.41" fill="none" stroke="#0b6fd3" stroke-width="1.5" stroke-opacity="0.95" stroke-linejoin="round" stroke-linecap="round"/>
<path d="M 72.00 355.63 L 100.00 355.20 L 128.00 347.63 L 156.00 346.12 L 184.00 342.93 L 212.00 342.49 L 240.00 340.57 L 268.00 339.59 L 296.00 339.02 L 324.00 338.49 L 352.00 337.59 L 380.00 335.90 L 408.00 335.65 L 436.00 334.62 L 464.00 334.37 L 492.00 329.12 L 520.00 328.14 L 548.00 327.23 L 576.00 321.66 L 604.00 312.03 L 632.00 309.98 L 660.00 308.82 L 688.00 307.64 L 716.00 299.78 L 744.00 289.39 L 772.00 287.97 L 800.00 275.12 L 828.00 268.53 L 856.00 265.18 L 884.00 229.57 L 912.00 228.08 L 912.00 349.41 L 884.00 349.51 L 856.00 351.56 L 828.00 352.53 L 800.00 353.88 L 772.00 354.93 L 744.00 355.14 L 716.00 356.63 L 688.00 357.70 L 660.00 357.88 L 632.00 357.98 L 604.00 358.14 L 576.00 358.64 L 548.00 359.04 L 520.00 359.12 L 492.00 359.22 L 464.00 359.51 L 436.00 359.55 L 408.00 359.64 L 380.00 359.68 L 352.00 359.86 L 324.00 359.94 L 296.00 360.02 L 268.00 360.07 L 240.00 360.15 L 212.00 360.32 L 184.00 360.39 L 156.00 360.84 L 128.00 360.99 L 100.00 361.58 L 72.00 361.68 Z" fill="#63d471" fill-opacity="0.78"/>
<path d="M 72.00 355.63 L 100.00 355.20 L 128.00 347.63 L 156.00 346.12 L 184.00 342.93 L 212.00 342.49 L 240.00 340.57 L 268.00 339.59 L 296.00 339.02 L 324.00 338.49 L 352.00 337.59 L 380.00 335.90 L 408.00 335.65 L 436.00 334.62 L 464.00 334.37 L 492.00 329.12 L 520.00 328.14 L 548.00 327.23 L 576.00 321.66 L 604.00 312.03 L 632.00 309.98 L 660.00 308.82 L 688.00 307.64 L 716.00 299.78 L 744.00 289.39 L 772.00 287.97 L 800.00 275.12 L 828.00 268.53 L 856.00 265.18 L 884.00 229.57 L 912.00 228.08" fill="none" stroke="#63d471" stroke-width="1.5" stroke-opacity="0.95" stroke-linejoin="round" stroke-linecap="round"/>
<path d="M 72.00 355.63 L 100.00 355.20 L 128.00 347.63 L 156.00 346.12 L 184.00 342.93 L 212.00 342.49 L 240.00 340.57 L 268.00 339.59 L 296.00 339.02 L 324.00 338.49 L 352.00 337.59 L 380.00 335.90 L 408.00 335.65 L 436.00 334.62 L 464.00 334.37 L 492.00 329.12 L 520.00 328.14 L 548.00 327.23 L 576.00 321.66 L 604.00 312.03 L 632.00 309.98 L 660.00 308.82 L 688.00 307.23 L 716.00 294.89 L 744.00 282.42 L 772.00 280.65 L 800.00 265.45 L 828.00 257.67 L 856.00 253.55 L 884.00 211.38 L 912.00 209.62 L 912.00 228.08 L 884.00 229.57 L 856.00 265.18 L 828.00 268.53 L 800.00 275.12 L 772.00 287.97 L 744.00 289.39 L 716.00 299.78 L 688.00 307.64 L 660.00 308.82 L 632.00 309.98 L 604.00 312.03 L 576.00 321.66 L 548.00 327.23 L 520.00 328.14 L 492.00 329.12 L 464.00 334.37 L 436.00 334.62 L 408.00 335.65 L 380.00 335.90 L 352.00 337.59 L 324.00 338.49 L 296.00 339.02 L 268.00 339.59 L 240.00 340.57 L 212.00 342.49 L 184.00 342.93 L 156.00 346.12 L 128.00 347.63 L 100.00 355.20 L 72.00 355.63 Z" fill="#23883a" fill-opacity="0.78"/>
<path d="M 72.00 355.63 L 100.00 355.20 L 128.00 347.63 L 156.00 346.12 L 184.00 342.93 L 212.00 342.49 L 240.00 340.57 L 268.00 339.59 L 296.00 339.02 L 324.00 338.49 L 352.00 337.59 L 380.00 335.90 L 408.00 335.65 L 436.00 334.62 L 464.00 334.37 L 492.00 329.12 L 520.00 328.14 L 548.00 327.23 L 576.00 321.66 L 604.00 312.03 L 632.00 309.98 L 660.00 308.82 L 688.00 307.23 L 716.00 294.89 L 744.00 282.42 L 772.00 280.65 L 800.00 265.45 L 828.00 257.67 L 856.00 253.55 L 884.00 211.38 L 912.00 209.62" fill="none" stroke="#23883a" stroke-width="1.5" stroke-opacity="0.95" stroke-linejoin="round" stroke-linecap="round"/>
<path d="M 72.00 354.28 L 100.00 353.75 L 128.00 344.46 L 156.00 342.57 L 184.00 338.63 L 212.00 338.06 L 240.00 335.62 L 268.00 334.38 L 296.00 333.67 L 324.00 332.98 L 352.00 331.82 L 380.00 329.63 L 408.00 329.30 L 436.00 327.96 L 464.00 327.61 L 492.00 321.06 L 520.00 319.75 L 548.00 318.53 L 576.00 311.46 L 604.00 299.30 L 632.00 296.63 L 660.00 295.13 L 688.00 293.29 L 716.00 279.26 L 744.00 264.30 L 772.00 262.23 L 800.00 243.79 L 828.00 234.01 L 856.00 229.19 L 884.00 181.54 L 912.00 179.45 L 912.00 209.62 L 884.00 211.38 L 856.00 253.55 L 828.00 257.67 L 800.00 265.45 L 772.00 280.65 L 744.00 282.42 L 716.00 294.89 L 688.00 307.23 L 660.00 308.82 L 632.00 309.98 L 604.00 312.03 L 576.00 321.66 L 548.00 327.23 L 520.00 328.14 L 492.00 329.12 L 464.00 334.37 L 436.00 334.62 L 408.00 335.65 L 380.00 335.90 L 352.00 337.59 L 324.00 338.49 L 296.00 339.02 L 268.00 339.59 L 240.00 340.57 L 212.00 342.49 L 184.00 342.93 L 156.00 346.12 L 128.00 347.63 L 100.00 355.20 L 72.00 355.63 Z" fill="#d9dee7" fill-opacity="0.78"/>
<path d="M 72.00 354.28 L 100.00 353.75 L 128.00 344.46 L 156.00 342.57 L 184.00 338.63 L 212.00 338.06 L 240.00 335.62 L 268.00 334.38 L 296.00 333.67 L 324.00 332.98 L 352.00 331.82 L 380.00 329.63 L 408.00 329.30 L 436.00 327.96 L 464.00 327.61 L 492.00 321.06 L 520.00 319.75 L 548.00 318.53 L 576.00 311.46 L 604.00 299.30 L 632.00 296.63 L 660.00 295.13 L 688.00 293.29 L 716.00 279.26 L 744.00 264.30 L 772.00 262.23 L 800.00 243.79 L 828.00 234.01 L 856.00 229.19 L 884.00 181.54 L 912.00 179.45" fill="none" stroke="#d9dee7" stroke-width="1.5" stroke-opacity="0.95" stroke-linejoin="round" stroke-linecap="round"/>
<path d="M 72.00 354.28 L 100.00 353.75 L 128.00 344.46 L 156.00 342.57 L 184.00 338.63 L 212.00 338.06 L 240.00 335.62 L 268.00 334.38 L 296.00 333.67 L 324.00 332.98 L 352.00 331.82 L 380.00 329.63 L 408.00 329.30 L 436.00 327.96 L 464.00 327.61 L 492.00 321.06 L 520.00 319.75 L 548.00 318.53 L 576.00 311.46 L 604.00 299.30 L 632.00 296.63 L 660.00 295.13 L 688.00 293.16 L 716.00 277.82 L 744.00 261.70 L 772.00 259.51 L 800.00 240.36 L 828.00 229.79 L 856.00 224.45 L 884.00 174.96 L 912.00 172.75 L 912.00 179.45 L 884.00 181.54 L 856.00 229.19 L 828.00 234.01 L 800.00 243.79 L 772.00 262.23 L 744.00 264.30 L 716.00 279.26 L 688.00 293.29 L 660.00 295.13 L 632.00 296.63 L 604.00 299.30 L 576.00 311.46 L 548.00 318.53 L 520.00 319.75 L 492.00 321.06 L 464.00 327.61 L 436.00 327.96 L 408.00 329.30 L 380.00 329.63 L 352.00 331.82 L 324.00 332.98 L 296.00 333.67 L 268.00 334.38 L 240.00 335.62 L 212.00 338.06 L 184.00 338.63 L 156.00 342.57 L 128.00 344.46 L 100.00 353.75 L 72.00 354.28 Z" fill="#697386" fill-opacity="0.78"/>
<path d="M 72.00 354.28 L 100.00 353.75 L 128.00 344.46 L 156.00 342.57 L 184.00 338.63 L 212.00 338.06 L 240.00 335.62 L 268.00 334.38 L 296.00 333.67 L 324.00 332.98 L 352.00 331.82 L 380.00 329.63 L 408.00 329.30 L 436.00 327.96 L 464.00 327.61 L 492.00 321.06 L 520.00 319.75 L 548.00 318.53 L 576.00 311.46 L 604.00 299.30 L 632.00 296.63 L 660.00 295.13 L 688.00 293.16 L 716.00 277.82 L 744.00 261.70 L 772.00 259.51 L 800.00 240.36 L 828.00 229.79 L 856.00 224.45 L 884.00 174.96 L 912.00 172.75" fill="none" stroke="#697386" stroke-width="1.5" stroke-opacity="0.95" stroke-linejoin="round" stroke-linecap="round"/>
<path d="M 72.00 354.28 L 100.00 353.75 L 128.00 344.46 L 156.00 342.57 L 184.00 338.63 L 212.00 338.06 L 240.00 335.62 L 268.00 334.38 L 296.00 333.67 L 324.00 332.98 L 352.00 331.82 L 380.00 329.63 L 408.00 329.30 L 436.00 327.96 L 464.00 327.61 L 492.00 321.06 L 520.00 319.75 L 548.00 318.53 L 576.00 311.46 L 604.00 299.30 L 632.00 296.63 L 660.00 295.13 L 688.00 293.16 L 716.00 277.82 L 744.00 228.11 L 772.00 225.92 L 800.00 198.03 L 828.00 184.96 L 856.00 178.84 L 884.00 122.40 L 912.00 119.57 L 912.00 172.75 L 884.00 174.96 L 856.00 224.45 L 828.00 229.79 L 800.00 240.36 L 772.00 259.51 L 744.00 261.70 L 716.00 277.82 L 688.00 293.16 L 660.00 295.13 L 632.00 296.63 L 604.00 299.30 L 576.00 311.46 L 548.00 318.53 L 520.00 319.75 L 492.00 321.06 L 464.00 327.61 L 436.00 327.96 L 408.00 329.30 L 380.00 329.63 L 352.00 331.82 L 324.00 332.98 L 296.00 333.67 L 268.00 334.38 L 240.00 335.62 L 212.00 338.06 L 184.00 338.63 L 156.00 342.57 L 128.00 344.46 L 100.00 353.75 L 72.00 354.28 Z" fill="#ffb061" fill-opacity="0.78"/>
<path d="M 72.00 354.28 L 100.00 353.75 L 128.00 344.46 L 156.00 342.57 L 184.00 338.63 L 212.00 338.06 L 240.00 335.62 L 268.00 334.38 L 296.00 333.67 L 324.00 332.98 L 352.00 331.82 L 380.00 329.63 L 408.00 329.30 L 436.00 327.96 L 464.00 327.61 L 492.00 321.06 L 520.00 319.75 L 548.00 318.53 L 576.00 311.46 L 604.00 299.30 L 632.00 296.63 L 660.00 295.13 L 688.00 293.16 L 716.00 277.82 L 744.00 228.11 L 772.00 225.92 L 800.00 198.03 L 828.00 184.96 L 856.00 178.84 L 884.00 122.40 L 912.00 119.57" fill="none" stroke="#ffb061" stroke-width="1.5" stroke-opacity="0.95" stroke-linejoin="round" stroke-linecap="round"/>
<circle cx="72" cy="462" r="5" fill="#69b7ff"/>
<text class="legend" x="84" y="466">macOS US 1,111</text>
<circle cx="210" cy="462" r="5" fill="#0b6fd3"/>
<text class="legend" x="222" y="466">macOS JP 400</text>
<circle cx="334" cy="462" r="5" fill="#63d471"/>
<text class="legend" x="346" y="466">Windows US 14,560</text>
<circle cx="493" cy="462" r="5" fill="#23883a"/>
<text class="legend" x="505" y="466">Windows JP 2,215</text>
<circle cx="645" cy="462" r="5" fill="#d9dee7"/>
<text class="legend" x="657" y="466">Linux US 3,620</text>
<circle cx="72" cy="488" r="5" fill="#697386"/>
<text class="legend" x="84" y="492">Linux JP 804</text>
<circle cx="196" cy="488" r="5" fill="#ffb061"/>
<text class="legend" x="208" y="492">Android US 6,381</text>
</svg>
