<svg xmlns="http://www.w3.org/2000/svg" width="960" height="580" viewBox="0 0 960 580" role="img" aria-labelledby="title desc">
<title id="title">Downloads by Platform</title>
<desc id="desc">JRickey/BattleShip has 28,684 release asset downloads in the current GitHub API data.</desc>
<style>
svg { font-family: -apple-system, BlinkMacSystemFont, 'Segoe UI', sans-serif; }
.surface { fill: #ffffff; stroke: #d0d7de; }
.plot-bg { fill: #f6f8fa; }
.title { fill: #24292f; font-size: 24px; font-weight: 700; }
.subtitle { fill: #57606a; font-size: 14px; }
.axis { fill: #57606a; font-size: 12px; }
.grid { stroke: #d8dee4; stroke-width: 1; }
.legend { fill: #24292f; font-size: 13px; }
.stat { fill: #24292f; font-size: 22px; font-weight: 700; }
.stat-label { fill: #57606a; font-size: 12px; }
</style>
<rect class="surface" x="0.5" y="0.5" width="959" height="579" rx="10"/>
<text class="title" x="36" y="40">Downloads by Platform</text>
<text class="subtitle" x="36" y="64">Categorical x axis by release tag; US is lighter, JP is darker</text>
<text class="stat" x="902" y="39" text-anchor="end">28,684</text>
<text class="stat-label" x="902" y="61" text-anchor="end">downloads across 30 releases</text>
<rect class="plot-bg" x="72" y="112" width="840" height="250" rx="6"/>
<line class="grid" x1="72" y1="362.00" x2="912" y2="362.00"/>
<text class="axis" x="60" y="366.00" text-anchor="end">0</text>
<line class="grid" x1="72" y1="299.50" x2="912" y2="299.50"/>
<text class="axis" x="60" y="303.50" text-anchor="end">7.5k</text>
<line class="grid" x1="72" y1="237.00" x2="912" y2="237.00"/>
<text class="axis" x="60" y="241.00" text-anchor="end">15k</text>
<line class="grid" x1="72" y1="174.50" x2="912" y2="174.50"/>
<text class="axis" x="60" y="178.50" text-anchor="end">22.5k</text>
<line class="grid" x1="72" y1="112.00" x2="912" y2="112.00"/>
<text class="axis" x="60" y="116.00" text-anchor="end">30k</text>
<text class="axis" x="72.00" y="404" text-anchor="end" transform="rotate(-35 72.00 404)">v0.3.2</text>
<text class="axis" x="187.86" y="404" text-anchor="end" transform="rotate(-35 187.86 404)">v0.5.1-beta</text>
<text class="axis" x="303.72" y="404" text-anchor="end" transform="rotate(-35 303.72 404)">v0.7.2-beta-hotfix</text>
<text class="axis" x="419.59" y="404" text-anchor="end" transform="rotate(-35 419.59 404)">v0.7.4-beta</text>
<text class="axis" x="535.45" y="404" text-anchor="end" transform="rotate(-35 535.45 404)">v0.8.1-beta</text>
<text class="axis" x="651.31" y="404" text-anchor="end" transform="rotate(-35 651.31 404)">v0.9.1-beta</text>
<text class="axis" x="767.17" y="404" text-anchor="end" transform="rotate(-35 767.17 404)">v1.1</text>
<text class="axis" x="883.03" y="404" text-anchor="end" transform="rotate(-35 883.03 404)">v1.4</text>
<text class="axis" x="912.00" y="404" text-anchor="end" transform="rotate(-35 912.00 404)">v1.4.1-hotfix</text>
<path d="M 72.00 361.68 L 100.97 361.58 L 129.93 360.99 L 158.90 360.84 L 187.86 360.39 L 216.83 360.32 L 245.79 360.15 L 274.76 360.07 L 303.72 360.02 L 332.69 359.94 L 361.66 359.86 L 390.62 359.68 L 419.59 359.64 L 448.55 359.55 L 477.52 359.51 L 506.48 359.22 L 535.45 359.12 L 564.41 359.04 L 593.38 358.65 L 622.34 358.15 L 651.31 357.98 L 680.28 357.89 L 709.24 357.78 L 738.21 357.18 L 767.17 356.18 L 796.14 356.03 L 825.10 355.32 L 854.07 354.57 L 883.03 354.09 L 912.00 352.83 L 912.00 362.00 L 883.03 362.00 L 854.07 362.00 L 825.10 362.00 L 796.14 362.00 L 767.17 362.00 L 738.21 362.00 L 709.24 362.00 L 680.28 362.00 L 651.31 362.00 L 622.34 362.00 L 593.38 362.00 L 564.41 362.00 L 535.45 362.00 L 506.48 362.00 L 477.52 362.00 L 448.55 362.00 L 419.59 362.00 L 390.62 362.00 L 361.66 362.00 L 332.69 362.00 L 303.72 362.00 L 274.76 362.00 L 245.79 362.00 L 216.83 362.00 L 187.86 362.00 L 158.90 362.00 L 129.93 362.00 L 100.97 362.00 L 72.00 362.00 Z" fill="#69b7ff" fill-opacity="0.78"/>
<path d="M 72.00 361.68 L 100.97 361.58 L 129.93 360.99 L 158.90 360.84 L 187.86 360.39 L 216.83 360.32 L 245.79 360.15 L 274.76 360.07 L 303.72 360.02 L 332.69 359.94 L 361.66 359.86 L 390.62 359.68 L 419.59 359.64 L 448.55 359.55 L 477.52 359.51 L 506.48 359.22 L 535.45 359.12 L 564.41 359.04 L 593.38 358.65 L 622.34 358.15 L 651.31 357.98 L 680.28 357.89 L 709.24 357.78 L 738.21 357.18 L 767.17 356.18 L 796.14 356.03 L 825.10 355.32 L 854.07 354.57 L 883.03 354.09 L 912.00 352.83" fill="none" stroke="#69b7ff" stroke-width="1.5" stroke-opacity="0.95" stroke-linejoin="round" stroke-linecap="round"/>
<path d="M 72.00 361.68 L 100.97 361.58 L 129.93 360.99 L 158.90 360.84 L 187.86 360.39 L 216.83 360.32 L 245.79 360.15 L 274.76 360.07 L 303.72 360.02 L 332.69 359.94 L 361.66 359.86 L 390.62 359.68 L 419.59 359.64 L 448.55 359.55 L 477.52 359.51 L 506.48 359.22 L 535.45 359.12 L 564.41 359.04 L 593.38 358.65 L 622.34 358.15 L 651.31 357.98 L 680.28 357.89 L 709.24 357.71 L 738.21 356.64 L 767.17 355.16 L 796.14 354.95 L 825.10 353.90 L 854.07 352.55 L 883.03 351.57 L 912.00 349.53 L 912.00 352.83 L 883.03 354.09 L 854.07 354.57 L 825.10 355.32 L 796.14 356.03 L 767.17 356.18 L 738.21 357.18 L 709.24 357.78 L 680.28 357.89 L 651.31 357.98 L 622.34 358.15 L 593.38 358.65 L 564.41 359.04 L 535.45 359.12 L 506.48 359.22 L 477.52 359.51 L 448.55 359.55 L 419.59 359.64 L 390.62 359.68 L 361.66 359.86 L 332.69 359.94 L 303.72 360.02 L 274.76 360.07 L 245.79 360.15 L 216.83 360.32 L 187.86 360.39 L 158.90 360.84 L 129.93 360.99 L 100.97 361.58 L 72.00 361.68 Z" fill="#0b6fd3" fill-opacity="0.78"/>
<path d="M 72.00 361.68 L 100.97 361.58 L 129.93 360.99 L 158.90 360.84 L 187.86 360.39 L 216.83 360.32 L 245.79 360.15 L 274.76 360.07 L 303.72 360.02 L 332.69 359.94 L 361.66 359.86 L 390.62 359.68 L 419.59 359.64 L 448.55 359.55 L 477.52 359.51 L 506.48 359.22 L 535.45 359.12 L 564.41 359.04 L 593.38 358.65 L 622.34 358.15 L 651.31 357.98 L 680.28 357.89 L 709.24 357.71 L 738.21 356.64 L 767.17 355.16 L 796.14 354.95 L 825.10 353.90 L 854.07 352.55 L 883.03 351.57 L 912.00 349.53" fill="none" stroke="#0b6fd3" stroke-width="1.5" stroke-opacity="0.95" stroke-linejoin="round" stroke-linecap="round"/>
<path d="M 72.00 355.63 L 100.97 355.20 L 129.93 347.63 L 158.90 346.12 L 187.86 342.93 L 216.83 342.49 L 245.79 340.57 L 274.76 339.59 L 303.72 339.02 L 332.69 338.49 L 361.66 337.59 L 390.62 335.90 L 419.59 335.65 L 448.55 334.62 L 477.52 334.37 L 506.48 329.12 L 535.45 328.14 L 564.41 327.23 L 593.38 321.70 L 622.34 312.07 L 651.31 310.02 L 680.28 308.88 L 709.24 307.70 L 738.21 299.85 L 767.17 289.48 L 796.14 288.05 L 825.10 275.20 L 854.07 268.62 L 883.03 265.27 L 912.00 229.79 L 912.00 349.53 L 883.03 351.57 L 854.07 352.55 L 825.10 353.90 L 796.14 354.95 L 767.17 355.16 L 738.21 356.64 L 709.24 357.71 L 680.28 357.89 L 651.31 357.98 L 622.34 358.15 L 593.38 358.65 L 564.41 359.04 L 535.45 359.12 L 506.48 359.22 L 477.52 359.51 L 448.55 359.55 L 419.59 359.64 L 390.62 359.68 L 361.66 359.86 L 332.69 359.94 L 303.72 360.02 L 274.76 360.07 L 245.79 360.15 L 216.83 360.32 L 187.86 360.39 L 158.90 360.84 L 129.93 360.99 L 100.97 361.58 L 72.00 361.68 Z" fill="#63d471" fill-opacity="0.78"/>
<path d="M 72.00 355.63 L 100.97 355.20 L 129.93 347.63 L 158.90 346.12 L 187.86 342.93 L 216.83 342.49 L 245.79 340.57 L 274.76 339.59 L 303.72 339.02 L 332.69 338.49 L 361.66 337.59 L 390.62 335.90 L 419.59 335.65 L 448.55 334.62 L 477.52 334.37 L 506.48 329.12 L 535.45 328.14 L 564.41 327.23 L 593.38 321.70 L 622.34 312.07 L 651.31 310.02 L 680.28 308.88 L 709.24 307.70 L 738.21 299.85 L 767.17 289.48 L 796.14 288.05 L 825.10 275.20 L 854.07 268.62 L 883.03 265.27 L 912.00 229.79" fill="none" stroke="#63d471" stroke-width="1.5" stroke-opacity="0.95" stroke-linejoin="round" stroke-linecap="round"/>
<path d="M 72.00 355.63 L 100.97 355.20 L 129.93 347.63 L 158.90 346.12 L 187.86 342.93 L 216.83 342.49 L 245.79 340.57 L 274.76 339.59 L 303.72 339.02 L 332.69 338.49 L 361.66 337.59 L 390.62 335.90 L 419.59 335.65 L 448.55 334.62 L 477.52 334.37 L 506.48 329.12 L 535.45 328.14 L 564.41 327.23 L 593.38 321.70 L 622.34 312.07 L 651.31 310.02 L 680.28 308.88 L 709.24 307.28 L 738.21 294.96 L 767.17 282.50 L 796.14 280.73 L 825.10 265.53 L 854.07 257.75 L 883.03 253.63 L 912.00 211.67 L 912.00 229.79 L 883.03 265.27 L 854.07 268.62 L 825.10 275.20 L 796.14 288.05 L 767.17 289.48 L 738.21 299.85 L 709.24 307.70 L 680.28 308.88 L 651.31 310.02 L 622.34 312.07 L 593.38 321.70 L 564.41 327.23 L 535.45 328.14 L 506.48 329.12 L 477.52 334.37 L 448.55 334.62 L 419.59 335.65 L 390.62 335.90 L 361.66 337.59 L 332.69 338.49 L 303.72 339.02 L 274.76 339.59 L 245.79 340.57 L 216.83 342.49 L 187.86 342.93 L 158.90 346.12 L 129.93 347.63 L 100.97 355.20 L 72.00 355.63 Z" fill="#23883a" fill-opacity="0.78"/>
<path d="M 72.00 355.63 L 100.97 355.20 L 129.93 347.63 L 158.90 346.12 L 187.86 342.93 L 216.83 342.49 L 245.79 340.57 L 274.76 339.59 L 303.72 339.02 L 332.69 338.49 L 361.66 337.59 L 390.62 335.90 L 419.59 335.65 L 448.55 334.62 L 477.52 334.37 L 506.48 329.12 L 535.45 328.14 L 564.41 327.23 L 593.38 321.70 L 622.34 312.07 L 651.31 310.02 L 680.28 308.88 L 709.24 307.28 L 738.21 294.96 L 767.17 282.50 L 796.14 280.73 L 825.10 265.53 L 854.07 257.75 L 883.03 253.63 L 912.00 211.67" fill="none" stroke="#23883a" stroke-width="1.5" stroke-opacity="0.95" stroke-linejoin="round" stroke-linecap="round"/>
<path d="M 72.00 354.28 L 100.97 353.75 L 129.93 344.46 L 158.90 342.57 L 187.86 338.63 L 216.83 338.06 L 245.79 335.62 L 274.76 334.38 L 303.72 333.67 L 332.69 332.98 L 361.66 331.82 L 390.62 329.63 L 419.59 329.30 L 448.55 327.96 L 477.52 327.61 L 506.48 321.06 L 535.45 319.75 L 564.41 318.53 L 593.38 311.51 L 622.34 299.35 L 651.31 296.68 L 680.28 295.19 L 709.24 293.36 L 738.21 279.33 L 767.17 264.39 L 796.14 262.32 L 825.10 243.88 L 854.07 234.10 L 883.03 229.28 L 912.00 181.87 L 912.00 211.67 L 883.03 253.63 L 854.07 257.75 L 825.10 265.53 L 796.14 280.73 L 767.17 282.50 L 738.21 294.96 L 709.24 307.28 L 680.28 308.88 L 651.31 310.02 L 622.34 312.07 L 593.38 321.70 L 564.41 327.23 L 535.45 328.14 L 506.48 329.12 L 477.52 334.37 L 448.55 334.62 L 419.59 335.65 L 390.62 335.90 L 361.66 337.59 L 332.69 338.49 L 303.72 339.02 L 274.76 339.59 L 245.79 340.57 L 216.83 342.49 L 187.86 342.93 L 158.90 346.12 L 129.93 347.63 L 100.97 355.20 L 72.00 355.63 Z" fill="#d9dee7" fill-opacity="0.78"/>
<path d="M 72.00 354.28 L 100.97 353.75 L 129.93 344.46 L 158.90 342.57 L 187.86 338.63 L 216.83 338.06 L 245.79 335.62 L 274.76 334.38 L 303.72 333.67 L 332.69 332.98 L 361.66 331.82 L 390.62 329.63 L 419.59 329.30 L 448.55 327.96 L 477.52 327.61 L 506.48 321.06 L 535.45 319.75 L 564.41 318.53 L 593.38 311.51 L 622.34 299.35 L 651.31 296.68 L 680.28 295.19 L 709.24 293.36 L 738.21 279.33 L 767.17 264.39 L 796.14 262.32 L 825.10 243.88 L 854.07 234.10 L 883.03 229.28 L 912.00 181.87" fill="none" stroke="#d9dee7" stroke-width="1.5" stroke-opacity="0.95" stroke-linejoin="round" stroke-linecap="round"/>
<path d="M 72.00 354.28 L 100.97 353.75 L 129.93 344.46 L 158.90 342.57 L 187.86 338.63 L 216.83 338.06 L 245.79 335.62 L 274.76 334.38 L 303.72 333.67 L 332.69 332.98 L 361.66 331.82 L 390.62 329.63 L 419.59 329.30 L 448.55 327.96 L 477.52 327.61 L 506.48 321.06 L 535.45 319.75 L 564.41 318.53 L 593.38 311.51 L 622.34 299.35 L 651.31 296.68 L 680.28 295.19 L 709.24 293.23 L 738.21 277.89 L 767.17 261.79 L 796.14 259.60 L 825.10 240.45 L 854.07 229.88 L 883.03 224.55 L 912.00 175.30 L 912.00 181.87 L 883.03 229.28 L 854.07 234.10 L 825.10 243.88 L 796.14 262.32 L 767.17 264.39 L 738.21 279.33 L 709.24 293.36 L 680.28 295.19 L 651.31 296.68 L 622.34 299.35 L 593.38 311.51 L 564.41 318.53 L 535.45 319.75 L 506.48 321.06 L 477.52 327.61 L 448.55 327.96 L 419.59 329.30 L 390.62 329.63 L 361.66 331.82 L 332.69 332.98 L 303.72 333.67 L 274.76 334.38 L 245.79 335.62 L 216.83 338.06 L 187.86 338.63 L 158.90 342.57 L 129.93 344.46 L 100.97 353.75 L 72.00 354.28 Z" fill="#697386" fill-opacity="0.78"/>
<path d="M 72.00 354.28 L 100.97 353.75 L 129.93 344.46 L 158.90 342.57 L 187.86 338.63 L 216.83 338.06 L 245.79 335.62 L 274.76 334.38 L 303.72 333.67 L 332.69 332.98 L 361.66 331.82 L 390.62 329.63 L 419.59 329.30 L 448.55 327.96 L 477.52 327.61 L 506.48 321.06 L 535.45 319.75 L 564.41 318.53 L 593.38 311.51 L 622.34 299.35 L 651.31 296.68 L 680.28 295.19 L 709.24 293.23 L 738.21 277.89 L 767.17 261.79 L 796.14 259.60 L 825.10 240.45 L 854.07 229.88 L 883.03 224.55 L 912.00 175.30" fill="none" stroke="#697386" stroke-width="1.5" stroke-opacity="0.95" stroke-linejoin="round" stroke-linecap="round"/>
<path d="M 72.00 354.28 L 100.97 353.75 L 129.93 344.46 L 158.90 342.57 L 187.86 338.63 L 216.83 338.06 L 245.79 335.62 L 274.76 334.38 L 303.72 333.67 L 332.69 332.98 L 361.66 331.82 L 390.62 329.63 L 419.59 329.30 L 448.55 327.96 L 477.52 327.61 L 506.48 321.06 L 535.45 319.75 L 564.41 318.53 L 593.38 311.51 L 622.34 299.35 L 651.31 296.68 L 680.28 295.19 L 709.24 293.23 L 738.21 277.89 L 767.17 228.31 L 796.14 226.12 L 825.10 198.24 L 854.07 185.17 L 883.03 179.07 L 912.00 122.97 L 912.00 175.30 L 883.03 224.55 L 854.07 229.88 L 825.10 240.45 L 796.14 259.60 L 767.17 261.79 L 738.21 277.89 L 709.24 293.23 L 680.28 295.19 L 651.31 296.68 L 622.34 299.35 L 593.38 311.51 L 564.41 318.53 L 535.45 319.75 L 506.48 321.06 L 477.52 327.61 L 448.55 327.96 L 419.59 329.30 L 390.62 329.63 L 361.66 331.82 L 332.69 332.98 L 303.72 333.67 L 274.76 334.38 L 245.79 335.62 L 216.83 338.06 L 187.86 338.63 L 158.90 342.57 L 129.93 344.46 L 100.97 353.75 L 72.00 354.28 Z" fill="#ffb061" fill-opacity="0.78"/>
<path d="M 72.00 354.28 L 100.97 353.75 L 129.93 344.46 L 158.90 342.57 L 187.86 338.63 L 216.83 338.06 L 245.79 335.62 L 274.76 334.38 L 303.72 333.67 L 332.69 332.98 L 361.66 331.82 L 390.62 329.63 L 419.59 329.30 L 448.55 327.96 L 477.52 327.61 L 506.48 321.06 L 535.45 319.75 L 564.41 318.53 L 593.38 311.51 L 622.34 299.35 L 651.31 296.68 L 680.28 295.19 L 709.24 293.23 L 738.21 277.89 L 767.17 228.31 L 796.14 226.12 L 825.10 198.24 L 854.07 185.17 L 883.03 179.07 L 912.00 122.97" fill="none" stroke="#ffb061" stroke-width="1.5" stroke-opacity="0.95" stroke-linejoin="round" stroke-linecap="round"/>
<circle cx="72" cy="462" r="5" fill="#69b7ff"/>
<text class="legend" x="84" y="466">macOS US 1,100</text>
<circle cx="210" cy="462" r="5" fill="#0b6fd3"/>
<text class="legend" x="222" y="466">macOS JP 396</text>
<circle cx="334" cy="462" r="5" fill="#63d471"/>
<text class="legend" x="346" y="466">Windows US 14,369</text>
<circle cx="493" cy="462" r="5" fill="#23883a"/>
<text class="legend" x="505" y="466">Windows JP 2,175</text>
<circle cx="645" cy="462" r="5" fill="#d9dee7"/>
<text class="legend" x="657" y="466">Linux US 3,576</text>
<circle cx="72" cy="488" r="5" fill="#697386"/>
<text class="legend" x="84" y="492">Linux JP 788</text>
<circle cx="196" cy="488" r="5" fill="#ffb061"/>
<text class="legend" x="208" y="492">Android US 6,280</text>
</svg>
