<svg xmlns="http://www.w3.org/2000/svg" width="960" height="580" viewBox="0 0 960 580" role="img" aria-labelledby="title desc">
<title id="title">Downloads by Platform</title>
<desc id="desc">JRickey/BattleShip has 30,074 release asset downloads in the current GitHub API data.</desc>
<style>
svg { font-family: -apple-system, BlinkMacSystemFont, 'Segoe UI', sans-serif; }
.surface { fill: #0d1117; stroke: #30363d; }
.plot-bg { fill: #161b22; }
.title { fill: #f0f6fc; font-size: 24px; font-weight: 700; }
.subtitle { fill: #8b949e; font-size: 14px; }
.axis { fill: #8b949e; font-size: 12px; }
.grid { stroke: #30363d; stroke-width: 1; }
.legend { fill: #f0f6fc; font-size: 13px; }
.stat { fill: #f0f6fc; font-size: 22px; font-weight: 700; }
.stat-label { fill: #8b949e; font-size: 12px; }
</style>
<rect class="surface" x="0.5" y="0.5" width="959" height="579" rx="10"/>
<text class="title" x="36" y="40">Downloads by Platform</text>
<text class="subtitle" x="36" y="64">Categorical x axis by release tag; US is lighter, JP is darker</text>
<text class="stat" x="902" y="39" text-anchor="end">30,074</text>
<text class="stat-label" x="902" y="61" text-anchor="end">downloads across 31 releases</text>
<rect class="plot-bg" x="72" y="112" width="840" height="250" rx="6"/>
<line class="grid" x1="72" y1="362.00" x2="912" y2="362.00"/>
<text class="axis" x="60" y="366.00" text-anchor="end">0</text>
<line class="grid" x1="72" y1="299.50" x2="912" y2="299.50"/>
<text class="axis" x="60" y="303.50" text-anchor="end">10k</text>
<line class="grid" x1="72" y1="237.00" x2="912" y2="237.00"/>
<text class="axis" x="60" y="241.00" text-anchor="end">20k</text>
<line class="grid" x1="72" y1="174.50" x2="912" y2="174.50"/>
<text class="axis" x="60" y="178.50" text-anchor="end">30k</text>
<line class="grid" x1="72" y1="112.00" x2="912" y2="112.00"/>
<text class="axis" x="60" y="116.00" text-anchor="end">40k</text>
<text class="axis" x="72.00" y="404" text-anchor="end" transform="rotate(-35 72.00 404)">v0.3.2</text>
<text class="axis" x="184.00" y="404" text-anchor="end" transform="rotate(-35 184.00 404)">v0.5.1-beta</text>
<text class="axis" x="296.00" y="404" text-anchor="end" transform="rotate(-35 296.00 404)">v0.7.2-beta-hotfix</text>
<text class="axis" x="408.00" y="404" text-anchor="end" transform="rotate(-35 408.00 404)">v0.7.4-beta</text>
<text class="axis" x="520.00" y="404" text-anchor="end" transform="rotate(-35 520.00 404)">v0.8.1-beta</text>
<text class="axis" x="632.00" y="404" text-anchor="end" transform="rotate(-35 632.00 404)">v0.9.1-beta</text>
<text class="axis" x="744.00" y="404" text-anchor="end" transform="rotate(-35 744.00 404)">v1.1</text>
<text class="axis" x="856.00" y="404" text-anchor="end" transform="rotate(-35 856.00 404)">v1.4</text>
<text class="axis" x="912.00" y="404" text-anchor="end" transform="rotate(-35 912.00 404)">v1.5</text>
<path d="M 72.00 361.75 L 100.00 361.68 L 128.00 361.24 L 156.00 361.12 L 184.00 360.79 L 212.00 360.73 L 240.00 360.61 L 268.00 360.54 L 296.00 360.51 L 324.00 360.45 L 352.00 360.39 L 380.00 360.26 L 408.00 360.23 L 436.00 360.16 L 464.00 360.12 L 492.00 359.91 L 520.00 359.84 L 548.00 359.77 L 576.00 359.47 L 604.00 359.09 L 632.00 358.97 L 660.00 358.89 L 688.00 358.81 L 716.00 358.33 L 744.00 357.57 L 772.00 357.47 L 800.00 356.93 L 828.00 356.38 L 856.00 356.00 L 884.00 355.02 L 912.00 354.94 L 912.00 362.00 L 884.00 362.00 L 856.00 362.00 L 828.00 362.00 L 800.00 362.00 L 772.00 362.00 L 744.00 362.00 L 716.00 362.00 L 688.00 362.00 L 660.00 362.00 L 632.00 362.00 L 604.00 362.00 L 576.00 362.00 L 548.00 362.00 L 520.00 362.00 L 492.00 362.00 L 464.00 362.00 L 436.00 362.00 L 408.00 362.00 L 380.00 362.00 L 352.00 362.00 L 324.00 362.00 L 296.00 362.00 L 268.00 362.00 L 240.00 362.00 L 212.00 362.00 L 184.00 362.00 L 156.00 362.00 L 128.00 362.00 L 100.00 362.00 L 72.00 362.00 Z" fill="#79c0ff" fill-opacity="0.78"/>
<path d="M 72.00 361.75 L 100.00 361.68 L 128.00 361.24 L 156.00 361.12 L 184.00 360.79 L 212.00 360.73 L 240.00 360.61 L 268.00 360.54 L 296.00 360.51 L 324.00 360.45 L 352.00 360.39 L 380.00 360.26 L 408.00 360.23 L 436.00 360.16 L 464.00 360.12 L 492.00 359.91 L 520.00 359.84 L 548.00 359.77 L 576.00 359.47 L 604.00 359.09 L 632.00 358.97 L 660.00 358.89 L 688.00 358.81 L 716.00 358.33 L 744.00 357.57 L 772.00 357.47 L 800.00 356.93 L 828.00 356.38 L 856.00 356.00 L 884.00 355.02 L 912.00 354.94" fill="none" stroke="#79c0ff" stroke-width="1.5" stroke-opacity="0.95" stroke-linejoin="round" stroke-linecap="round"/>
<path d="M 72.00 361.75 L 100.00 361.68 L 128.00 361.24 L 156.00 361.12 L 184.00 360.79 L 212.00 360.73 L 240.00 360.61 L 268.00 360.54 L 296.00 360.51 L 324.00 360.45 L 352.00 360.39 L 380.00 360.26 L 408.00 360.23 L 436.00 360.16 L 464.00 360.12 L 492.00 359.91 L 520.00 359.84 L 548.00 359.77 L 576.00 359.47 L 604.00 359.09 L 632.00 358.97 L 660.00 358.89 L 688.00 358.76 L 716.00 357.93 L 744.00 356.81 L 772.00 356.65 L 800.00 355.86 L 828.00 354.84 L 856.00 354.09 L 884.00 352.52 L 912.00 352.39 L 912.00 354.94 L 884.00 355.02 L 856.00 356.00 L 828.00 356.38 L 800.00 356.93 L 772.00 357.47 L 744.00 357.57 L 716.00 358.33 L 688.00 358.81 L 660.00 358.89 L 632.00 358.97 L 604.00 359.09 L 576.00 359.47 L 548.00 359.77 L 520.00 359.84 L 492.00 359.91 L 464.00 360.12 L 436.00 360.16 L 408.00 360.23 L 380.00 360.26 L 352.00 360.39 L 324.00 360.45 L 296.00 360.51 L 268.00 360.54 L 240.00 360.61 L 212.00 360.73 L 184.00 360.79 L 156.00 361.12 L 128.00 361.24 L 100.00 361.68 L 72.00 361.75 Z" fill="#2f81f7" fill-opacity="0.78"/>
<path d="M 72.00 361.75 L 100.00 361.68 L 128.00 361.24 L 156.00 361.12 L 184.00 360.79 L 212.00 360.73 L 240.00 360.61 L 268.00 360.54 L 296.00 360.51 L 324.00 360.45 L 352.00 360.39 L 380.00 360.26 L 408.00 360.23 L 436.00 360.16 L 464.00 360.12 L 492.00 359.91 L 520.00 359.84 L 548.00 359.77 L 576.00 359.47 L 604.00 359.09 L 632.00 358.97 L 660.00 358.89 L 688.00 358.76 L 716.00 357.93 L 744.00 356.81 L 772.00 356.65 L 800.00 355.86 L 828.00 354.84 L 856.00 354.09 L 884.00 352.52 L 912.00 352.39" fill="none" stroke="#2f81f7" stroke-width="1.5" stroke-opacity="0.95" stroke-linejoin="round" stroke-linecap="round"/>
<path d="M 72.00 357.22 L 100.00 356.89 L 128.00 351.22 L 156.00 350.08 L 184.00 347.69 L 212.00 347.36 L 240.00 345.93 L 268.00 345.19 L 296.00 344.76 L 324.00 344.36 L 352.00 343.68 L 380.00 342.41 L 408.00 342.22 L 436.00 341.44 L 464.00 341.25 L 492.00 337.31 L 520.00 336.58 L 548.00 335.89 L 576.00 331.60 L 604.00 324.38 L 632.00 322.84 L 660.00 321.95 L 688.00 321.06 L 716.00 315.09 L 744.00 307.29 L 772.00 306.21 L 800.00 296.57 L 828.00 291.62 L 856.00 289.07 L 884.00 262.26 L 912.00 258.49 L 912.00 352.39 L 884.00 352.52 L 856.00 354.09 L 828.00 354.84 L 800.00 355.86 L 772.00 356.65 L 744.00 356.81 L 716.00 357.93 L 688.00 358.76 L 660.00 358.89 L 632.00 358.97 L 604.00 359.09 L 576.00 359.47 L 548.00 359.77 L 520.00 359.84 L 492.00 359.91 L 464.00 360.12 L 436.00 360.16 L 408.00 360.23 L 380.00 360.26 L 352.00 360.39 L 324.00 360.45 L 296.00 360.51 L 268.00 360.54 L 240.00 360.61 L 212.00 360.73 L 184.00 360.79 L 156.00 361.12 L 128.00 361.24 L 100.00 361.68 L 72.00 361.75 Z" fill="#7ee787" fill-opacity="0.78"/>
<path d="M 72.00 357.22 L 100.00 356.89 L 128.00 351.22 L 156.00 350.08 L 184.00 347.69 L 212.00 347.36 L 240.00 345.93 L 268.00 345.19 L 296.00 344.76 L 324.00 344.36 L 352.00 343.68 L 380.00 342.41 L 408.00 342.22 L 436.00 341.44 L 464.00 341.25 L 492.00 337.31 L 520.00 336.58 L 548.00 335.89 L 576.00 331.60 L 604.00 324.38 L 632.00 322.84 L 660.00 321.95 L 688.00 321.06 L 716.00 315.09 L 744.00 307.29 L 772.00 306.21 L 800.00 296.57 L 828.00 291.62 L 856.00 289.07 L 884.00 262.26 L 912.00 258.49" fill="none" stroke="#7ee787" stroke-width="1.5" stroke-opacity="0.95" stroke-linejoin="round" stroke-linecap="round"/>
<path d="M 72.00 357.22 L 100.00 356.89 L 128.00 351.22 L 156.00 350.08 L 184.00 347.69 L 212.00 347.36 L 240.00 345.93 L 268.00 345.19 L 296.00 344.76 L 324.00 344.36 L 352.00 343.68 L 380.00 342.41 L 408.00 342.22 L 436.00 341.44 L 464.00 341.25 L 492.00 337.31 L 520.00 336.58 L 548.00 335.89 L 576.00 331.60 L 604.00 324.38 L 632.00 322.84 L 660.00 321.95 L 688.00 320.75 L 716.00 311.34 L 744.00 301.96 L 772.00 300.61 L 800.00 289.21 L 828.00 283.34 L 856.00 280.21 L 884.00 248.44 L 912.00 244.00 L 912.00 258.49 L 884.00 262.26 L 856.00 289.07 L 828.00 291.62 L 800.00 296.57 L 772.00 306.21 L 744.00 307.29 L 716.00 315.09 L 688.00 321.06 L 660.00 321.95 L 632.00 322.84 L 604.00 324.38 L 576.00 331.60 L 548.00 335.89 L 520.00 336.58 L 492.00 337.31 L 464.00 341.25 L 436.00 341.44 L 408.00 342.22 L 380.00 342.41 L 352.00 343.68 L 324.00 344.36 L 296.00 344.76 L 268.00 345.19 L 240.00 345.93 L 212.00 347.36 L 184.00 347.69 L 156.00 350.08 L 128.00 351.22 L 100.00 356.89 L 72.00 357.22 Z" fill="#3fb950" fill-opacity="0.78"/>
<path d="M 72.00 357.22 L 100.00 356.89 L 128.00 351.22 L 156.00 350.08 L 184.00 347.69 L 212.00 347.36 L 240.00 345.93 L 268.00 345.19 L 296.00 344.76 L 324.00 344.36 L 352.00 343.68 L 380.00 342.41 L 408.00 342.22 L 436.00 341.44 L 464.00 341.25 L 492.00 337.31 L 520.00 336.58 L 548.00 335.89 L 576.00 331.60 L 604.00 324.38 L 632.00 322.84 L 660.00 321.95 L 688.00 320.75 L 716.00 311.34 L 744.00 301.96 L 772.00 300.61 L 800.00 289.21 L 828.00 283.34 L 856.00 280.21 L 884.00 248.44 L 912.00 244.00" fill="none" stroke="#3fb950" stroke-width="1.5" stroke-opacity="0.95" stroke-linejoin="round" stroke-linecap="round"/>
<path d="M 72.00 356.21 L 100.00 355.81 L 128.00 348.84 L 156.00 347.42 L 184.00 344.47 L 212.00 344.04 L 240.00 342.21 L 268.00 341.27 L 296.00 340.74 L 324.00 340.23 L 352.00 339.34 L 380.00 337.71 L 408.00 337.46 L 436.00 336.44 L 464.00 336.18 L 492.00 331.27 L 520.00 330.29 L 548.00 329.38 L 576.00 323.93 L 604.00 314.81 L 632.00 312.81 L 660.00 311.66 L 688.00 310.28 L 716.00 299.58 L 744.00 288.34 L 772.00 286.74 L 800.00 272.92 L 828.00 265.56 L 856.00 261.89 L 884.00 225.99 L 912.00 220.76 L 912.00 244.00 L 884.00 248.44 L 856.00 280.21 L 828.00 283.34 L 800.00 289.21 L 772.00 300.61 L 744.00 301.96 L 716.00 311.34 L 688.00 320.75 L 660.00 321.95 L 632.00 322.84 L 604.00 324.38 L 576.00 331.60 L 548.00 335.89 L 520.00 336.58 L 492.00 337.31 L 464.00 341.25 L 436.00 341.44 L 408.00 342.22 L 380.00 342.41 L 352.00 343.68 L 324.00 344.36 L 296.00 344.76 L 268.00 345.19 L 240.00 345.93 L 212.00 347.36 L 184.00 347.69 L 156.00 350.08 L 128.00 351.22 L 100.00 356.89 L 72.00 357.22 Z" fill="#c9d1d9" fill-opacity="0.78"/>
<path d="M 72.00 356.21 L 100.00 355.81 L 128.00 348.84 L 156.00 347.42 L 184.00 344.47 L 212.00 344.04 L 240.00 342.21 L 268.00 341.27 L 296.00 340.74 L 324.00 340.23 L 352.00 339.34 L 380.00 337.71 L 408.00 337.46 L 436.00 336.44 L 464.00 336.18 L 492.00 331.27 L 520.00 330.29 L 548.00 329.38 L 576.00 323.93 L 604.00 314.81 L 632.00 312.81 L 660.00 311.66 L 688.00 310.28 L 716.00 299.58 L 744.00 288.34 L 772.00 286.74 L 800.00 272.92 L 828.00 265.56 L 856.00 261.89 L 884.00 225.99 L 912.00 220.76" fill="none" stroke="#c9d1d9" stroke-width="1.5" stroke-opacity="0.95" stroke-linejoin="round" stroke-linecap="round"/>
<path d="M 72.00 356.21 L 100.00 355.81 L 128.00 348.84 L 156.00 347.42 L 184.00 344.47 L 212.00 344.04 L 240.00 342.21 L 268.00 341.27 L 296.00 340.74 L 324.00 340.23 L 352.00 339.34 L 380.00 337.71 L 408.00 337.46 L 436.00 336.44 L 464.00 336.18 L 492.00 331.27 L 520.00 330.29 L 548.00 329.38 L 576.00 323.93 L 604.00 314.81 L 632.00 312.81 L 660.00 311.66 L 688.00 310.18 L 716.00 298.46 L 744.00 286.34 L 772.00 284.66 L 800.00 270.29 L 828.00 262.34 L 856.00 258.28 L 884.00 220.96 L 912.00 215.47 L 912.00 220.76 L 884.00 225.99 L 856.00 261.89 L 828.00 265.56 L 800.00 272.92 L 772.00 286.74 L 744.00 288.34 L 716.00 299.58 L 688.00 310.28 L 660.00 311.66 L 632.00 312.81 L 604.00 314.81 L 576.00 323.93 L 548.00 329.38 L 520.00 330.29 L 492.00 331.27 L 464.00 336.18 L 436.00 336.44 L 408.00 337.46 L 380.00 337.71 L 352.00 339.34 L 324.00 340.23 L 296.00 340.74 L 268.00 341.27 L 240.00 342.21 L 212.00 344.04 L 184.00 344.47 L 156.00 347.42 L 128.00 348.84 L 100.00 355.81 L 72.00 356.21 Z" fill="#8b949e" fill-opacity="0.78"/>
<path d="M 72.00 356.21 L 100.00 355.81 L 128.00 348.84 L 156.00 347.42 L 184.00 344.47 L 212.00 344.04 L 240.00 342.21 L 268.00 341.27 L 296.00 340.74 L 324.00 340.23 L 352.00 339.34 L 380.00 337.71 L 408.00 337.46 L 436.00 336.44 L 464.00 336.18 L 492.00 331.27 L 520.00 330.29 L 548.00 329.38 L 576.00 323.93 L 604.00 314.81 L 632.00 312.81 L 660.00 311.66 L 688.00 310.18 L 716.00 298.46 L 744.00 286.34 L 772.00 284.66 L 800.00 270.29 L 828.00 262.34 L 856.00 258.28 L 884.00 220.96 L 912.00 215.47" fill="none" stroke="#8b949e" stroke-width="1.5" stroke-opacity="0.95" stroke-linejoin="round" stroke-linecap="round"/>
<path d="M 72.00 356.21 L 100.00 355.81 L 128.00 348.84 L 156.00 347.42 L 184.00 344.47 L 212.00 344.04 L 240.00 342.21 L 268.00 341.27 L 296.00 340.74 L 324.00 340.23 L 352.00 339.34 L 380.00 337.71 L 408.00 337.46 L 436.00 336.44 L 464.00 336.18 L 492.00 331.27 L 520.00 330.29 L 548.00 329.38 L 576.00 323.93 L 604.00 314.81 L 632.00 312.81 L 660.00 311.66 L 688.00 310.18 L 716.00 298.46 L 744.00 260.79 L 772.00 259.11 L 800.00 238.16 L 828.00 228.30 L 856.00 223.65 L 884.00 180.85 L 912.00 174.04 L 912.00 215.47 L 884.00 220.96 L 856.00 258.28 L 828.00 262.34 L 800.00 270.29 L 772.00 284.66 L 744.00 286.34 L 716.00 298.46 L 688.00 310.18 L 660.00 311.66 L 632.00 312.81 L 604.00 314.81 L 576.00 323.93 L 548.00 329.38 L 520.00 330.29 L 492.00 331.27 L 464.00 336.18 L 436.00 336.44 L 408.00 337.46 L 380.00 337.71 L 352.00 339.34 L 324.00 340.23 L 296.00 340.74 L 268.00 341.27 L 240.00 342.21 L 212.00 344.04 L 184.00 344.47 L 156.00 347.42 L 128.00 348.84 L 100.00 355.81 L 72.00 356.21 Z" fill="#ffb77c" fill-opacity="0.78"/>
<path d="M 72.00 356.21 L 100.00 355.81 L 128.00 348.84 L 156.00 347.42 L 184.00 344.47 L 212.00 344.04 L 240.00 342.21 L 268.00 341.27 L 296.00 340.74 L 324.00 340.23 L 352.00 339.34 L 380.00 337.71 L 408.00 337.46 L 436.00 336.44 L 464.00 336.18 L 492.00 331.27 L 520.00 330.29 L 548.00 329.38 L 576.00 323.93 L 604.00 314.81 L 632.00 312.81 L 660.00 311.66 L 688.00 310.18 L 716.00 298.46 L 744.00 260.79 L 772.00 259.11 L 800.00 238.16 L 828.00 228.30 L 856.00 223.65 L 884.00 180.85 L 912.00 174.04" fill="none" stroke="#ffb77c" stroke-width="1.5" stroke-opacity="0.95" stroke-linejoin="round" stroke-linecap="round"/>
<circle cx="72" cy="462" r="5" fill="#79c0ff"/>
<text class="legend" x="84" y="466">macOS US 1,130</text>
<circle cx="210" cy="462" r="5" fill="#2f81f7"/>
<text class="legend" x="222" y="466">macOS JP 407</text>
<circle cx="334" cy="462" r="5" fill="#7ee787"/>
<text class="legend" x="346" y="466">Windows US 15,024</text>
<circle cx="493" cy="462" r="5" fill="#3fb950"/>
<text class="legend" x="505" y="466">Windows JP 2,319</text>
<circle cx="645" cy="462" r="5" fill="#c9d1d9"/>
<text class="legend" x="657" y="466">Linux US 3,718</text>
<circle cx="72" cy="488" r="5" fill="#8b949e"/>
<text class="legend" x="84" y="492">Linux JP 847</text>
<circle cx="196" cy="488" r="5" fill="#ffb77c"/>
<text class="legend" x="208" y="492">Android US 6,629</text>
</svg>
