<svg xmlns="http://www.w3.org/2000/svg" width="960" height="580" viewBox="0 0 960 580" role="img" aria-labelledby="title desc">
<title id="title">Downloads by Platform</title>
<desc id="desc">JRickey/BattleShip has 29,452 release asset downloads in the current GitHub API data.</desc>
<style>
svg { font-family: -apple-system, BlinkMacSystemFont, 'Segoe UI', sans-serif; }
.surface { fill: #0d1117; stroke: #30363d; }
.plot-bg { fill: #161b22; }
.title { fill: #f0f6fc; font-size: 24px; font-weight: 700; }
.subtitle { fill: #8b949e; font-size: 14px; }
.axis { fill: #8b949e; font-size: 12px; }
.grid { stroke: #30363d; stroke-width: 1; }
.legend { fill: #f0f6fc; font-size: 13px; }
.stat { fill: #f0f6fc; font-size: 22px; font-weight: 700; }
.stat-label { fill: #8b949e; font-size: 12px; }
</style>
<rect class="surface" x="0.5" y="0.5" width="959" height="579" rx="10"/>
<text class="title" x="36" y="40">Downloads by Platform</text>
<text class="subtitle" x="36" y="64">Categorical x axis by release tag; US is lighter, JP is darker</text>
<text class="stat" x="902" y="39" text-anchor="end">29,452</text>
<text class="stat-label" x="902" y="61" text-anchor="end">downloads across 31 releases</text>
<rect class="plot-bg" x="72" y="112" width="840" height="250" rx="6"/>
<line class="grid" x1="72" y1="362.00" x2="912" y2="362.00"/>
<text class="axis" x="60" y="366.00" text-anchor="end">0</text>
<line class="grid" x1="72" y1="299.50" x2="912" y2="299.50"/>
<text class="axis" x="60" y="303.50" text-anchor="end">7.5k</text>
<line class="grid" x1="72" y1="237.00" x2="912" y2="237.00"/>
<text class="axis" x="60" y="241.00" text-anchor="end">15k</text>
<line class="grid" x1="72" y1="174.50" x2="912" y2="174.50"/>
<text class="axis" x="60" y="178.50" text-anchor="end">22.5k</text>
<line class="grid" x1="72" y1="112.00" x2="912" y2="112.00"/>
<text class="axis" x="60" y="116.00" text-anchor="end">30k</text>
<text class="axis" x="72.00" y="404" text-anchor="end" transform="rotate(-35 72.00 404)">v0.3.2</text>
<text class="axis" x="184.00" y="404" text-anchor="end" transform="rotate(-35 184.00 404)">v0.5.1-beta</text>
<text class="axis" x="296.00" y="404" text-anchor="end" transform="rotate(-35 296.00 404)">v0.7.2-beta-hotfix</text>
<text class="axis" x="408.00" y="404" text-anchor="end" transform="rotate(-35 408.00 404)">v0.7.4-beta</text>
<text class="axis" x="520.00" y="404" text-anchor="end" transform="rotate(-35 520.00 404)">v0.8.1-beta</text>
<text class="axis" x="632.00" y="404" text-anchor="end" transform="rotate(-35 632.00 404)">v0.9.1-beta</text>
<text class="axis" x="744.00" y="404" text-anchor="end" transform="rotate(-35 744.00 404)">v1.1</text>
<text class="axis" x="856.00" y="404" text-anchor="end" transform="rotate(-35 856.00 404)">v1.4</text>
<text class="axis" x="912.00" y="404" text-anchor="end" transform="rotate(-35 912.00 404)">v1.5</text>
<path d="M 72.00 361.68 L 100.00 361.58 L 128.00 360.99 L 156.00 360.84 L 184.00 360.39 L 212.00 360.32 L 240.00 360.15 L 268.00 360.07 L 296.00 360.02 L 324.00 359.94 L 352.00 359.86 L 380.00 359.68 L 408.00 359.64 L 436.00 359.55 L 464.00 359.51 L 492.00 359.22 L 520.00 359.12 L 548.00 359.04 L 576.00 358.64 L 604.00 358.14 L 632.00 357.98 L 660.00 357.88 L 688.00 357.77 L 716.00 357.13 L 744.00 356.12 L 772.00 355.98 L 800.00 355.27 L 828.00 354.52 L 856.00 354.03 L 884.00 352.77 L 912.00 352.68 L 912.00 362.00 L 884.00 362.00 L 856.00 362.00 L 828.00 362.00 L 800.00 362.00 L 772.00 362.00 L 744.00 362.00 L 716.00 362.00 L 688.00 362.00 L 660.00 362.00 L 632.00 362.00 L 604.00 362.00 L 576.00 362.00 L 548.00 362.00 L 520.00 362.00 L 492.00 362.00 L 464.00 362.00 L 436.00 362.00 L 408.00 362.00 L 380.00 362.00 L 352.00 362.00 L 324.00 362.00 L 296.00 362.00 L 268.00 362.00 L 240.00 362.00 L 212.00 362.00 L 184.00 362.00 L 156.00 362.00 L 128.00 362.00 L 100.00 362.00 L 72.00 362.00 Z" fill="#79c0ff" fill-opacity="0.78"/>
<path d="M 72.00 361.68 L 100.00 361.58 L 128.00 360.99 L 156.00 360.84 L 184.00 360.39 L 212.00 360.32 L 240.00 360.15 L 268.00 360.07 L 296.00 360.02 L 324.00 359.94 L 352.00 359.86 L 380.00 359.68 L 408.00 359.64 L 436.00 359.55 L 464.00 359.51 L 492.00 359.22 L 520.00 359.12 L 548.00 359.04 L 576.00 358.64 L 604.00 358.14 L 632.00 357.98 L 660.00 357.88 L 688.00 357.77 L 716.00 357.13 L 744.00 356.12 L 772.00 355.98 L 800.00 355.27 L 828.00 354.52 L 856.00 354.03 L 884.00 352.77 L 912.00 352.68" fill="none" stroke="#79c0ff" stroke-width="1.5" stroke-opacity="0.95" stroke-linejoin="round" stroke-linecap="round"/>
<path d="M 72.00 361.68 L 100.00 361.58 L 128.00 360.99 L 156.00 360.84 L 184.00 360.39 L 212.00 360.32 L 240.00 360.15 L 268.00 360.07 L 296.00 360.02 L 324.00 359.94 L 352.00 359.86 L 380.00 359.68 L 408.00 359.64 L 436.00 359.55 L 464.00 359.51 L 492.00 359.22 L 520.00 359.12 L 548.00 359.04 L 576.00 358.64 L 604.00 358.14 L 632.00 357.98 L 660.00 357.88 L 688.00 357.70 L 716.00 356.60 L 744.00 355.10 L 772.00 354.89 L 800.00 353.84 L 828.00 352.49 L 856.00 351.50 L 884.00 349.45 L 912.00 349.32 L 912.00 352.68 L 884.00 352.77 L 856.00 354.03 L 828.00 354.52 L 800.00 355.27 L 772.00 355.98 L 744.00 356.12 L 716.00 357.13 L 688.00 357.77 L 660.00 357.88 L 632.00 357.98 L 604.00 358.14 L 576.00 358.64 L 548.00 359.04 L 520.00 359.12 L 492.00 359.22 L 464.00 359.51 L 436.00 359.55 L 408.00 359.64 L 380.00 359.68 L 352.00 359.86 L 324.00 359.94 L 296.00 360.02 L 268.00 360.07 L 240.00 360.15 L 212.00 360.32 L 184.00 360.39 L 156.00 360.84 L 128.00 360.99 L 100.00 361.58 L 72.00 361.68 Z" fill="#2f81f7" fill-opacity="0.78"/>
<path d="M 72.00 361.68 L 100.00 361.58 L 128.00 360.99 L 156.00 360.84 L 184.00 360.39 L 212.00 360.32 L 240.00 360.15 L 268.00 360.07 L 296.00 360.02 L 324.00 359.94 L 352.00 359.86 L 380.00 359.68 L 408.00 359.64 L 436.00 359.55 L 464.00 359.51 L 492.00 359.22 L 520.00 359.12 L 548.00 359.04 L 576.00 358.64 L 604.00 358.14 L 632.00 357.98 L 660.00 357.88 L 688.00 357.70 L 716.00 356.60 L 744.00 355.10 L 772.00 354.89 L 800.00 353.84 L 828.00 352.49 L 856.00 351.50 L 884.00 349.45 L 912.00 349.32" fill="none" stroke="#2f81f7" stroke-width="1.5" stroke-opacity="0.95" stroke-linejoin="round" stroke-linecap="round"/>
<path d="M 72.00 355.63 L 100.00 355.20 L 128.00 347.63 L 156.00 346.12 L 184.00 342.93 L 212.00 342.49 L 240.00 340.57 L 268.00 339.59 L 296.00 339.02 L 324.00 338.49 L 352.00 337.59 L 380.00 335.90 L 408.00 335.65 L 436.00 334.62 L 464.00 334.37 L 492.00 329.12 L 520.00 328.14 L 548.00 327.23 L 576.00 321.61 L 604.00 311.98 L 632.00 309.93 L 660.00 308.77 L 688.00 307.59 L 716.00 299.67 L 744.00 289.27 L 772.00 287.84 L 800.00 274.99 L 828.00 268.41 L 856.00 265.04 L 884.00 229.43 L 912.00 226.51 L 912.00 349.32 L 884.00 349.45 L 856.00 351.50 L 828.00 352.49 L 800.00 353.84 L 772.00 354.89 L 744.00 355.10 L 716.00 356.60 L 688.00 357.70 L 660.00 357.88 L 632.00 357.98 L 604.00 358.14 L 576.00 358.64 L 548.00 359.04 L 520.00 359.12 L 492.00 359.22 L 464.00 359.51 L 436.00 359.55 L 408.00 359.64 L 380.00 359.68 L 352.00 359.86 L 324.00 359.94 L 296.00 360.02 L 268.00 360.07 L 240.00 360.15 L 212.00 360.32 L 184.00 360.39 L 156.00 360.84 L 128.00 360.99 L 100.00 361.58 L 72.00 361.68 Z" fill="#7ee787" fill-opacity="0.78"/>
<path d="M 72.00 355.63 L 100.00 355.20 L 128.00 347.63 L 156.00 346.12 L 184.00 342.93 L 212.00 342.49 L 240.00 340.57 L 268.00 339.59 L 296.00 339.02 L 324.00 338.49 L 352.00 337.59 L 380.00 335.90 L 408.00 335.65 L 436.00 334.62 L 464.00 334.37 L 492.00 329.12 L 520.00 328.14 L 548.00 327.23 L 576.00 321.61 L 604.00 311.98 L 632.00 309.93 L 660.00 308.77 L 688.00 307.59 L 716.00 299.67 L 744.00 289.27 L 772.00 287.84 L 800.00 274.99 L 828.00 268.41 L 856.00 265.04 L 884.00 229.43 L 912.00 226.51" fill="none" stroke="#7ee787" stroke-width="1.5" stroke-opacity="0.95" stroke-linejoin="round" stroke-linecap="round"/>
<path d="M 72.00 355.63 L 100.00 355.20 L 128.00 347.63 L 156.00 346.12 L 184.00 342.93 L 212.00 342.49 L 240.00 340.57 L 268.00 339.59 L 296.00 339.02 L 324.00 338.49 L 352.00 337.59 L 380.00 335.90 L 408.00 335.65 L 436.00 334.62 L 464.00 334.37 L 492.00 329.12 L 520.00 328.14 L 548.00 327.23 L 576.00 321.61 L 604.00 311.98 L 632.00 309.93 L 660.00 308.77 L 688.00 307.18 L 716.00 294.70 L 744.00 282.21 L 772.00 280.44 L 800.00 265.24 L 828.00 257.46 L 856.00 253.32 L 884.00 211.13 L 912.00 207.69 L 912.00 226.51 L 884.00 229.43 L 856.00 265.04 L 828.00 268.41 L 800.00 274.99 L 772.00 287.84 L 744.00 289.27 L 716.00 299.67 L 688.00 307.59 L 660.00 308.77 L 632.00 309.93 L 604.00 311.98 L 576.00 321.61 L 548.00 327.23 L 520.00 328.14 L 492.00 329.12 L 464.00 334.37 L 436.00 334.62 L 408.00 335.65 L 380.00 335.90 L 352.00 337.59 L 324.00 338.49 L 296.00 339.02 L 268.00 339.59 L 240.00 340.57 L 212.00 342.49 L 184.00 342.93 L 156.00 346.12 L 128.00 347.63 L 100.00 355.20 L 72.00 355.63 Z" fill="#3fb950" fill-opacity="0.78"/>
<path d="M 72.00 355.63 L 100.00 355.20 L 128.00 347.63 L 156.00 346.12 L 184.00 342.93 L 212.00 342.49 L 240.00 340.57 L 268.00 339.59 L 296.00 339.02 L 324.00 338.49 L 352.00 337.59 L 380.00 335.90 L 408.00 335.65 L 436.00 334.62 L 464.00 334.37 L 492.00 329.12 L 520.00 328.14 L 548.00 327.23 L 576.00 321.61 L 604.00 311.98 L 632.00 309.93 L 660.00 308.77 L 688.00 307.18 L 716.00 294.70 L 744.00 282.21 L 772.00 280.44 L 800.00 265.24 L 828.00 257.46 L 856.00 253.32 L 884.00 211.13 L 912.00 207.69" fill="none" stroke="#3fb950" stroke-width="1.5" stroke-opacity="0.95" stroke-linejoin="round" stroke-linecap="round"/>
<path d="M 72.00 354.28 L 100.00 353.75 L 128.00 344.46 L 156.00 342.57 L 184.00 338.63 L 212.00 338.06 L 240.00 335.62 L 268.00 334.38 L 296.00 333.67 L 324.00 332.98 L 352.00 331.82 L 380.00 329.63 L 408.00 329.30 L 436.00 327.96 L 464.00 327.61 L 492.00 321.06 L 520.00 319.75 L 548.00 318.53 L 576.00 311.38 L 604.00 299.23 L 632.00 296.56 L 660.00 295.06 L 688.00 293.22 L 716.00 279.03 L 744.00 264.05 L 772.00 261.97 L 800.00 243.53 L 828.00 233.75 L 856.00 228.92 L 884.00 181.25 L 912.00 177.18 L 912.00 207.69 L 884.00 211.13 L 856.00 253.32 L 828.00 257.46 L 800.00 265.24 L 772.00 280.44 L 744.00 282.21 L 716.00 294.70 L 688.00 307.18 L 660.00 308.77 L 632.00 309.93 L 604.00 311.98 L 576.00 321.61 L 548.00 327.23 L 520.00 328.14 L 492.00 329.12 L 464.00 334.37 L 436.00 334.62 L 408.00 335.65 L 380.00 335.90 L 352.00 337.59 L 324.00 338.49 L 296.00 339.02 L 268.00 339.59 L 240.00 340.57 L 212.00 342.49 L 184.00 342.93 L 156.00 346.12 L 128.00 347.63 L 100.00 355.20 L 72.00 355.63 Z" fill="#c9d1d9" fill-opacity="0.78"/>
<path d="M 72.00 354.28 L 100.00 353.75 L 128.00 344.46 L 156.00 342.57 L 184.00 338.63 L 212.00 338.06 L 240.00 335.62 L 268.00 334.38 L 296.00 333.67 L 324.00 332.98 L 352.00 331.82 L 380.00 329.63 L 408.00 329.30 L 436.00 327.96 L 464.00 327.61 L 492.00 321.06 L 520.00 319.75 L 548.00 318.53 L 576.00 311.38 L 604.00 299.23 L 632.00 296.56 L 660.00 295.06 L 688.00 293.22 L 716.00 279.03 L 744.00 264.05 L 772.00 261.97 L 800.00 243.53 L 828.00 233.75 L 856.00 228.92 L 884.00 181.25 L 912.00 177.18" fill="none" stroke="#c9d1d9" stroke-width="1.5" stroke-opacity="0.95" stroke-linejoin="round" stroke-linecap="round"/>
<path d="M 72.00 354.28 L 100.00 353.75 L 128.00 344.46 L 156.00 342.57 L 184.00 338.63 L 212.00 338.06 L 240.00 335.62 L 268.00 334.38 L 296.00 333.67 L 324.00 332.98 L 352.00 331.82 L 380.00 329.63 L 408.00 329.30 L 436.00 327.96 L 464.00 327.61 L 492.00 321.06 L 520.00 319.75 L 548.00 318.53 L 576.00 311.38 L 604.00 299.23 L 632.00 296.56 L 660.00 295.06 L 688.00 293.08 L 716.00 277.56 L 744.00 261.41 L 772.00 259.21 L 800.00 240.05 L 828.00 229.48 L 856.00 224.12 L 884.00 174.61 L 912.00 170.33 L 912.00 177.18 L 884.00 181.25 L 856.00 228.92 L 828.00 233.75 L 800.00 243.53 L 772.00 261.97 L 744.00 264.05 L 716.00 279.03 L 688.00 293.22 L 660.00 295.06 L 632.00 296.56 L 604.00 299.23 L 576.00 311.38 L 548.00 318.53 L 520.00 319.75 L 492.00 321.06 L 464.00 327.61 L 436.00 327.96 L 408.00 329.30 L 380.00 329.63 L 352.00 331.82 L 324.00 332.98 L 296.00 333.67 L 268.00 334.38 L 240.00 335.62 L 212.00 338.06 L 184.00 338.63 L 156.00 342.57 L 128.00 344.46 L 100.00 353.75 L 72.00 354.28 Z" fill="#8b949e" fill-opacity="0.78"/>
<path d="M 72.00 354.28 L 100.00 353.75 L 128.00 344.46 L 156.00 342.57 L 184.00 338.63 L 212.00 338.06 L 240.00 335.62 L 268.00 334.38 L 296.00 333.67 L 324.00 332.98 L 352.00 331.82 L 380.00 329.63 L 408.00 329.30 L 436.00 327.96 L 464.00 327.61 L 492.00 321.06 L 520.00 319.75 L 548.00 318.53 L 576.00 311.38 L 604.00 299.23 L 632.00 296.56 L 660.00 295.06 L 688.00 293.08 L 716.00 277.56 L 744.00 261.41 L 772.00 259.21 L 800.00 240.05 L 828.00 229.48 L 856.00 224.12 L 884.00 174.61 L 912.00 170.33" fill="none" stroke="#8b949e" stroke-width="1.5" stroke-opacity="0.95" stroke-linejoin="round" stroke-linecap="round"/>
<path d="M 72.00 354.28 L 100.00 353.75 L 128.00 344.46 L 156.00 342.57 L 184.00 338.63 L 212.00 338.06 L 240.00 335.62 L 268.00 334.38 L 296.00 333.67 L 324.00 332.98 L 352.00 331.82 L 380.00 329.63 L 408.00 329.30 L 436.00 327.96 L 464.00 327.61 L 492.00 321.06 L 520.00 319.75 L 548.00 318.53 L 576.00 311.38 L 604.00 299.23 L 632.00 296.56 L 660.00 295.06 L 688.00 293.08 L 716.00 277.56 L 744.00 227.71 L 772.00 225.51 L 800.00 197.61 L 828.00 184.53 L 856.00 178.39 L 884.00 121.87 L 912.00 116.57 L 912.00 170.33 L 884.00 174.61 L 856.00 224.12 L 828.00 229.48 L 800.00 240.05 L 772.00 259.21 L 744.00 261.41 L 716.00 277.56 L 688.00 293.08 L 660.00 295.06 L 632.00 296.56 L 604.00 299.23 L 576.00 311.38 L 548.00 318.53 L 520.00 319.75 L 492.00 321.06 L 464.00 327.61 L 436.00 327.96 L 408.00 329.30 L 380.00 329.63 L 352.00 331.82 L 324.00 332.98 L 296.00 333.67 L 268.00 334.38 L 240.00 335.62 L 212.00 338.06 L 184.00 338.63 L 156.00 342.57 L 128.00 344.46 L 100.00 353.75 L 72.00 354.28 Z" fill="#ffb77c" fill-opacity="0.78"/>
<path d="M 72.00 354.28 L 100.00 353.75 L 128.00 344.46 L 156.00 342.57 L 184.00 338.63 L 212.00 338.06 L 240.00 335.62 L 268.00 334.38 L 296.00 333.67 L 324.00 332.98 L 352.00 331.82 L 380.00 329.63 L 408.00 329.30 L 436.00 327.96 L 464.00 327.61 L 492.00 321.06 L 520.00 319.75 L 548.00 318.53 L 576.00 311.38 L 604.00 299.23 L 632.00 296.56 L 660.00 295.06 L 688.00 293.08 L 716.00 277.56 L 744.00 227.71 L 772.00 225.51 L 800.00 197.61 L 828.00 184.53 L 856.00 178.39 L 884.00 121.87 L 912.00 116.57" fill="none" stroke="#ffb77c" stroke-width="1.5" stroke-opacity="0.95" stroke-linejoin="round" stroke-linecap="round"/>
<circle cx="72" cy="462" r="5" fill="#79c0ff"/>
<text class="legend" x="84" y="466">macOS US 1,119</text>
<circle cx="210" cy="462" r="5" fill="#2f81f7"/>
<text class="legend" x="222" y="466">macOS JP 403</text>
<circle cx="334" cy="462" r="5" fill="#7ee787"/>
<text class="legend" x="346" y="466">Windows US 14,737</text>
<circle cx="493" cy="462" r="5" fill="#3fb950"/>
<text class="legend" x="505" y="466">Windows JP 2,258</text>
<circle cx="645" cy="462" r="5" fill="#c9d1d9"/>
<text class="legend" x="657" y="466">Linux US 3,662</text>
<circle cx="72" cy="488" r="5" fill="#8b949e"/>
<text class="legend" x="84" y="492">Linux JP 821</text>
<circle cx="196" cy="488" r="5" fill="#ffb77c"/>
<text class="legend" x="208" y="492">Android US 6,452</text>
</svg>
