<svg xmlns="http://www.w3.org/2000/svg" width="960" height="420" viewBox="0 0 960 420" role="img" aria-labelledby="title desc">
<title id="title">GitHub star growth</title>
<desc id="desc">JRickey/BattleShip has 339 stars in the current GitHub API data.</desc>
<style>
svg { font-family: -apple-system, BlinkMacSystemFont, 'Segoe UI', sans-serif; }
.surface { fill: #ffffff; stroke: #d0d7de; }
.plot-bg { fill: #f6f8fa; }
.title { fill: #24292f; font-size: 24px; font-weight: 700; }
.subtitle { fill: #57606a; font-size: 14px; }
.axis { fill: #57606a; font-size: 12px; }
.grid { stroke: #d8dee4; stroke-width: 1; }
.legend { fill: #24292f; font-size: 13px; }
.stat { fill: #24292f; font-size: 22px; font-weight: 700; }
.stat-label { fill: #57606a; font-size: 12px; }
</style>
<rect class="surface" x="0.5" y="0.5" width="959" height="419" rx="10"/>
<defs>
<linearGradient id="starFill" x1="0" y1="0" x2="0" y2="1">
<stop offset="0%" stop-color="#ffd08a" stop-opacity="0.62"/>
<stop offset="100%" stop-color="#fff7eb" stop-opacity="0.12"/>
</linearGradient>
</defs>
<text class="title" x="36" y="40">GitHub star growth</text>
<text class="subtitle" x="36" y="64">Since repository creation</text>
<text class="stat" x="902" y="39" text-anchor="end">339</text>
<text class="stat-label" x="902" y="61" text-anchor="end">stars</text>
<rect class="plot-bg" x="72" y="100" width="840" height="250" rx="6"/>
<line class="grid" x1="72" y1="350.00" x2="912" y2="350.00"/>
<text class="axis" x="60" y="354.00" text-anchor="end">0</text>
<line class="grid" x1="72" y1="287.50" x2="912" y2="287.50"/>
<text class="axis" x="60" y="291.50" text-anchor="end">100</text>
<line class="grid" x1="72" y1="225.00" x2="912" y2="225.00"/>
<text class="axis" x="60" y="229.00" text-anchor="end">200</text>
<line class="grid" x1="72" y1="162.50" x2="912" y2="162.50"/>
<text class="axis" x="60" y="166.50" text-anchor="end">300</text>
<line class="grid" x1="72" y1="100.00" x2="912" y2="100.00"/>
<text class="axis" x="60" y="104.00" text-anchor="end">400</text>
<text class="axis" x="72.00" y="384" text-anchor="middle">Apr 4, 2026</text>
<text class="axis" x="354.95" y="384" text-anchor="middle">May 6, 2026</text>
<text class="axis" x="629.05" y="384" text-anchor="middle">Jun 6, 2026</text>
<text class="axis" x="912.00" y="384" text-anchor="middle">Jul 8, 2026</text>
<path d="M 72.00 350.00 L 72.00 350.00 L 293.05 334.38 L 301.89 290.00 L 310.74 273.75 L 319.58 267.50 L 328.42 263.75 L 337.26 259.38 L 346.11 256.25 L 354.95 254.38 L 363.79 249.38 L 372.63 244.38 L 381.47 241.88 L 390.32 235.62 L 399.16 235.00 L 408.00 233.12 L 416.84 231.25 L 425.68 226.25 L 434.53 221.88 L 443.37 220.00 L 452.21 217.50 L 461.05 215.00 L 478.74 213.75 L 487.58 212.50 L 496.42 210.62 L 505.26 208.12 L 514.11 203.12 L 522.95 194.38 L 531.79 183.75 L 540.63 177.50 L 549.47 175.00 L 558.32 172.50 L 567.16 171.88 L 576.00 170.62 L 584.84 168.75 L 593.68 167.50 L 602.53 166.88 L 611.37 166.25 L 620.21 164.38 L 629.05 163.12 L 637.89 162.50 L 646.74 161.88 L 655.58 160.62 L 664.42 160.00 L 673.26 158.75 L 699.79 157.50 L 708.63 155.62 L 717.47 154.38 L 726.32 153.12 L 744.00 152.50 L 752.84 148.75 L 761.68 148.12 L 770.53 146.88 L 788.21 145.62 L 814.74 145.00 L 823.58 144.38 L 832.42 143.75 L 858.95 143.12 L 867.79 142.50 L 876.63 141.88 L 885.47 140.00 L 894.32 139.38 L 903.16 138.75 L 912.00 138.12 L 912.00 350.00 Z" fill="url(#starFill)"/>
<path d="M 72.00 350.00 L 293.05 334.38 L 301.89 290.00 L 310.74 273.75 L 319.58 267.50 L 328.42 263.75 L 337.26 259.38 L 346.11 256.25 L 354.95 254.38 L 363.79 249.38 L 372.63 244.38 L 381.47 241.88 L 390.32 235.62 L 399.16 235.00 L 408.00 233.12 L 416.84 231.25 L 425.68 226.25 L 434.53 221.88 L 443.37 220.00 L 452.21 217.50 L 461.05 215.00 L 478.74 213.75 L 487.58 212.50 L 496.42 210.62 L 505.26 208.12 L 514.11 203.12 L 522.95 194.38 L 531.79 183.75 L 540.63 177.50 L 549.47 175.00 L 558.32 172.50 L 567.16 171.88 L 576.00 170.62 L 584.84 168.75 L 593.68 167.50 L 602.53 166.88 L 611.37 166.25 L 620.21 164.38 L 629.05 163.12 L 637.89 162.50 L 646.74 161.88 L 655.58 160.62 L 664.42 160.00 L 673.26 158.75 L 699.79 157.50 L 708.63 155.62 L 717.47 154.38 L 726.32 153.12 L 744.00 152.50 L 752.84 148.75 L 761.68 148.12 L 770.53 146.88 L 788.21 145.62 L 814.74 145.00 L 823.58 144.38 L 832.42 143.75 L 858.95 143.12 L 867.79 142.50 L 876.63 141.88 L 885.47 140.00 L 894.32 139.38 L 903.16 138.75 L 912.00 138.12" fill="none" stroke="#fb8500" stroke-width="3" stroke-linejoin="round" stroke-linecap="round"/>
<circle cx="912.00" cy="138.12" r="4.5" fill="#fb8500"/>
</svg>
