<svg xmlns="http://www.w3.org/2000/svg" width="960" height="420" viewBox="0 0 960 420" role="img" aria-labelledby="title desc">
<title id="title">GitHub star growth</title>
<desc id="desc">TechnicallyComputers/BattleShip has 17 stars in the current GitHub API data.</desc>
<style>
svg { font-family: -apple-system, BlinkMacSystemFont, 'Segoe UI', sans-serif; }
.surface { fill: #0d1117; stroke: #30363d; }
.plot-bg { fill: #161b22; }
.title { fill: #f0f6fc; font-size: 24px; font-weight: 700; }
.subtitle { fill: #8b949e; font-size: 14px; }
.axis { fill: #8b949e; font-size: 12px; }
.grid { stroke: #30363d; stroke-width: 1; }
.legend { fill: #f0f6fc; font-size: 13px; }
.stat { fill: #f0f6fc; font-size: 22px; font-weight: 700; }
.stat-label { fill: #8b949e; font-size: 12px; }
</style>
<rect class="surface" x="0.5" y="0.5" width="959" height="419" rx="10"/>
<defs>
<linearGradient id="starFill" x1="0" y1="0" x2="0" y2="1">
<stop offset="0%" stop-color="#9e6a03" stop-opacity="0.62"/>
<stop offset="100%" stop-color="#161b22" stop-opacity="0.12"/>
</linearGradient>
</defs>
<text class="title" x="36" y="40">GitHub star growth</text>
<text class="subtitle" x="36" y="64">Since repository creation</text>
<text class="stat" x="902" y="39" text-anchor="end">17</text>
<text class="stat-label" x="902" y="61" text-anchor="end">stars</text>
<rect class="plot-bg" x="72" y="100" width="840" height="250" rx="6"/>
<line class="grid" x1="72" y1="350.00" x2="912" y2="350.00"/>
<text class="axis" x="60" y="354.00" text-anchor="end">0</text>
<line class="grid" x1="72" y1="287.50" x2="912" y2="287.50"/>
<text class="axis" x="60" y="291.50" text-anchor="end">5</text>
<line class="grid" x1="72" y1="225.00" x2="912" y2="225.00"/>
<text class="axis" x="60" y="229.00" text-anchor="end">10</text>
<line class="grid" x1="72" y1="162.50" x2="912" y2="162.50"/>
<text class="axis" x="60" y="166.50" text-anchor="end">15</text>
<line class="grid" x1="72" y1="100.00" x2="912" y2="100.00"/>
<text class="axis" x="60" y="104.00" text-anchor="end">20</text>
<text class="axis" x="72.00" y="384" text-anchor="middle">May 6, 2026</text>
<text class="axis" x="352.00" y="384" text-anchor="middle">May 22, 2026</text>
<text class="axis" x="632.00" y="384" text-anchor="middle">Jun 7, 2026</text>
<text class="axis" x="912.00" y="384" text-anchor="middle">Jun 23, 2026</text>
<path d="M 72.00 350.00 L 72.00 350.00 L 404.50 312.50 L 422.00 262.50 L 474.50 250.00 L 492.00 237.50 L 754.50 225.00 L 859.50 200.00 L 877.00 175.00 L 894.50 162.50 L 912.00 137.50 L 912.00 350.00 Z" fill="url(#starFill)"/>
<path d="M 72.00 350.00 L 404.50 312.50 L 422.00 262.50 L 474.50 250.00 L 492.00 237.50 L 754.50 225.00 L 859.50 200.00 L 877.00 175.00 L 894.50 162.50 L 912.00 137.50" fill="none" stroke="#ffa657" stroke-width="3" stroke-linejoin="round" stroke-linecap="round"/>
<circle cx="912.00" cy="137.50" r="4.5" fill="#ffa657"/>
</svg>
