<svg xmlns="http://www.w3.org/2000/svg" width="960" height="420" viewBox="0 0 960 420" role="img" aria-labelledby="title desc">
<title id="title">GitHub star growth</title>
<desc id="desc">JRickey/BattleShip has 342 stars in the current GitHub API data.</desc>
<style>
svg { font-family: -apple-system, BlinkMacSystemFont, 'Segoe UI', sans-serif; }
.surface { fill: #ffffff; stroke: #d0d7de; }
.plot-bg { fill: #f6f8fa; }
.title { fill: #24292f; font-size: 24px; font-weight: 700; }
.subtitle { fill: #57606a; font-size: 14px; }
.axis { fill: #57606a; font-size: 12px; }
.grid { stroke: #d8dee4; stroke-width: 1; }
.legend { fill: #24292f; font-size: 13px; }
.stat { fill: #24292f; font-size: 22px; font-weight: 700; }
.stat-label { fill: #57606a; font-size: 12px; }
</style>
<rect class="surface" x="0.5" y="0.5" width="959" height="419" rx="10"/>
<defs>
<linearGradient id="starFill" x1="0" y1="0" x2="0" y2="1">
<stop offset="0%" stop-color="#ffd08a" stop-opacity="0.62"/>
<stop offset="100%" stop-color="#fff7eb" stop-opacity="0.12"/>
</linearGradient>
</defs>
<text class="title" x="36" y="40">GitHub star growth</text>
<text class="subtitle" x="36" y="64">Since repository creation</text>
<text class="stat" x="902" y="39" text-anchor="end">342</text>
<text class="stat-label" x="902" y="61" text-anchor="end">stars</text>
<rect class="plot-bg" x="72" y="100" width="840" height="250" rx="6"/>
<line class="grid" x1="72" y1="350.00" x2="912" y2="350.00"/>
<text class="axis" x="60" y="354.00" text-anchor="end">0</text>
<line class="grid" x1="72" y1="287.50" x2="912" y2="287.50"/>
<text class="axis" x="60" y="291.50" text-anchor="end">100</text>
<line class="grid" x1="72" y1="225.00" x2="912" y2="225.00"/>
<text class="axis" x="60" y="229.00" text-anchor="end">200</text>
<line class="grid" x1="72" y1="162.50" x2="912" y2="162.50"/>
<text class="axis" x="60" y="166.50" text-anchor="end">300</text>
<line class="grid" x1="72" y1="100.00" x2="912" y2="100.00"/>
<text class="axis" x="60" y="104.00" text-anchor="end">400</text>
<text class="axis" x="72.00" y="384" text-anchor="middle">Apr 4, 2026</text>
<text class="axis" x="349.11" y="384" text-anchor="middle">May 6, 2026</text>
<text class="axis" x="634.89" y="384" text-anchor="middle">Jun 8, 2026</text>
<text class="axis" x="912.00" y="384" text-anchor="middle">Jul 10, 2026</text>
<path d="M 72.00 350.00 L 72.00 350.00 L 288.49 334.38 L 297.15 290.00 L 305.81 273.75 L 314.47 267.50 L 323.13 263.75 L 331.79 259.38 L 340.45 256.25 L 349.11 254.38 L 357.77 249.38 L 366.43 244.38 L 375.09 241.88 L 383.75 235.62 L 392.41 235.00 L 401.07 233.12 L 409.73 231.25 L 418.39 226.25 L 427.05 221.88 L 435.71 220.00 L 444.37 217.50 L 453.03 215.00 L 470.35 213.75 L 479.01 212.50 L 487.67 210.62 L 496.33 208.12 L 504.99 203.12 L 513.65 194.38 L 522.31 183.75 L 530.97 177.50 L 539.63 175.00 L 548.29 172.50 L 556.95 171.88 L 565.61 170.62 L 574.27 168.75 L 582.93 167.50 L 591.59 166.88 L 600.25 166.25 L 608.91 164.38 L 617.57 163.12 L 626.23 162.50 L 634.89 161.88 L 643.55 160.62 L 652.21 160.00 L 660.87 158.75 L 686.85 157.50 L 695.51 155.62 L 704.16 154.38 L 712.82 153.12 L 730.14 152.50 L 738.80 148.75 L 747.46 148.12 L 756.12 146.88 L 773.44 145.62 L 799.42 145.00 L 808.08 144.38 L 816.74 143.75 L 842.72 143.12 L 851.38 142.50 L 860.04 141.88 L 868.70 140.00 L 877.36 139.38 L 886.02 138.75 L 894.68 137.50 L 912.00 136.25 L 912.00 350.00 Z" fill="url(#starFill)"/>
<path d="M 72.00 350.00 L 288.49 334.38 L 297.15 290.00 L 305.81 273.75 L 314.47 267.50 L 323.13 263.75 L 331.79 259.38 L 340.45 256.25 L 349.11 254.38 L 357.77 249.38 L 366.43 244.38 L 375.09 241.88 L 383.75 235.62 L 392.41 235.00 L 401.07 233.12 L 409.73 231.25 L 418.39 226.25 L 427.05 221.88 L 435.71 220.00 L 444.37 217.50 L 453.03 215.00 L 470.35 213.75 L 479.01 212.50 L 487.67 210.62 L 496.33 208.12 L 504.99 203.12 L 513.65 194.38 L 522.31 183.75 L 530.97 177.50 L 539.63 175.00 L 548.29 172.50 L 556.95 171.88 L 565.61 170.62 L 574.27 168.75 L 582.93 167.50 L 591.59 166.88 L 600.25 166.25 L 608.91 164.38 L 617.57 163.12 L 626.23 162.50 L 634.89 161.88 L 643.55 160.62 L 652.21 160.00 L 660.87 158.75 L 686.85 157.50 L 695.51 155.62 L 704.16 154.38 L 712.82 153.12 L 730.14 152.50 L 738.80 148.75 L 747.46 148.12 L 756.12 146.88 L 773.44 145.62 L 799.42 145.00 L 808.08 144.38 L 816.74 143.75 L 842.72 143.12 L 851.38 142.50 L 860.04 141.88 L 868.70 140.00 L 877.36 139.38 L 886.02 138.75 L 894.68 137.50 L 912.00 136.25" fill="none" stroke="#fb8500" stroke-width="3" stroke-linejoin="round" stroke-linecap="round"/>
<circle cx="912.00" cy="136.25" r="4.5" fill="#fb8500"/>
</svg>
