<svg xmlns="http://www.w3.org/2000/svg" width="960" height="420" viewBox="0 0 960 420" role="img" aria-labelledby="title desc">
<title id="title">GitHub star growth</title>
<desc id="desc">JRickey/BattleShip has 338 stars in the current GitHub API data.</desc>
<style>
svg { font-family: -apple-system, BlinkMacSystemFont, 'Segoe UI', sans-serif; }
.surface { fill: #0d1117; stroke: #30363d; }
.plot-bg { fill: #161b22; }
.title { fill: #f0f6fc; font-size: 24px; font-weight: 700; }
.subtitle { fill: #8b949e; font-size: 14px; }
.axis { fill: #8b949e; font-size: 12px; }
.grid { stroke: #30363d; stroke-width: 1; }
.legend { fill: #f0f6fc; font-size: 13px; }
.stat { fill: #f0f6fc; font-size: 22px; font-weight: 700; }
.stat-label { fill: #8b949e; font-size: 12px; }
</style>
<rect class="surface" x="0.5" y="0.5" width="959" height="419" rx="10"/>
<defs>
<linearGradient id="starFill" x1="0" y1="0" x2="0" y2="1">
<stop offset="0%" stop-color="#9e6a03" stop-opacity="0.62"/>
<stop offset="100%" stop-color="#161b22" stop-opacity="0.12"/>
</linearGradient>
</defs>
<text class="title" x="36" y="40">GitHub star growth</text>
<text class="subtitle" x="36" y="64">Since repository creation</text>
<text class="stat" x="902" y="39" text-anchor="end">338</text>
<text class="stat-label" x="902" y="61" text-anchor="end">stars</text>
<rect class="plot-bg" x="72" y="100" width="840" height="250" rx="6"/>
<line class="grid" x1="72" y1="350.00" x2="912" y2="350.00"/>
<text class="axis" x="60" y="354.00" text-anchor="end">0</text>
<line class="grid" x1="72" y1="287.50" x2="912" y2="287.50"/>
<text class="axis" x="60" y="291.50" text-anchor="end">100</text>
<line class="grid" x1="72" y1="225.00" x2="912" y2="225.00"/>
<text class="axis" x="60" y="229.00" text-anchor="end">200</text>
<line class="grid" x1="72" y1="162.50" x2="912" y2="162.50"/>
<text class="axis" x="60" y="166.50" text-anchor="end">300</text>
<line class="grid" x1="72" y1="100.00" x2="912" y2="100.00"/>
<text class="axis" x="60" y="104.00" text-anchor="end">400</text>
<text class="axis" x="72.00" y="384" text-anchor="middle">Apr 4, 2026</text>
<text class="axis" x="349.02" y="384" text-anchor="middle">May 5, 2026</text>
<text class="axis" x="634.98" y="384" text-anchor="middle">Jun 6, 2026</text>
<text class="axis" x="912.00" y="384" text-anchor="middle">Jul 7, 2026</text>
<path d="M 72.00 350.00 L 72.00 350.00 L 295.40 334.38 L 304.34 290.00 L 313.28 273.75 L 322.21 267.50 L 331.15 263.75 L 340.09 259.38 L 349.02 256.25 L 357.96 254.38 L 366.89 249.38 L 375.83 244.38 L 384.77 241.88 L 393.70 235.62 L 402.64 235.00 L 411.57 233.12 L 420.51 231.25 L 429.45 226.25 L 438.38 221.88 L 447.32 220.00 L 456.26 217.50 L 465.19 215.00 L 483.06 213.75 L 492.00 212.50 L 500.94 210.62 L 509.87 208.12 L 518.81 203.12 L 527.74 194.38 L 536.68 183.75 L 545.62 177.50 L 554.55 175.00 L 563.49 172.50 L 572.43 171.88 L 581.36 170.62 L 590.30 168.75 L 599.23 167.50 L 608.17 166.88 L 617.11 166.25 L 626.04 164.38 L 634.98 163.12 L 643.91 162.50 L 652.85 161.88 L 661.79 160.62 L 670.72 160.00 L 679.66 158.75 L 706.47 157.50 L 715.40 155.62 L 724.34 154.38 L 733.28 153.12 L 751.15 152.50 L 760.09 148.75 L 769.02 148.12 L 777.96 146.88 L 795.83 145.62 L 822.64 145.00 L 831.57 144.38 L 840.51 143.75 L 867.32 143.12 L 876.26 142.50 L 885.19 141.88 L 894.13 140.00 L 903.06 139.38 L 912.00 138.75 L 912.00 350.00 Z" fill="url(#starFill)"/>
<path d="M 72.00 350.00 L 295.40 334.38 L 304.34 290.00 L 313.28 273.75 L 322.21 267.50 L 331.15 263.75 L 340.09 259.38 L 349.02 256.25 L 357.96 254.38 L 366.89 249.38 L 375.83 244.38 L 384.77 241.88 L 393.70 235.62 L 402.64 235.00 L 411.57 233.12 L 420.51 231.25 L 429.45 226.25 L 438.38 221.88 L 447.32 220.00 L 456.26 217.50 L 465.19 215.00 L 483.06 213.75 L 492.00 212.50 L 500.94 210.62 L 509.87 208.12 L 518.81 203.12 L 527.74 194.38 L 536.68 183.75 L 545.62 177.50 L 554.55 175.00 L 563.49 172.50 L 572.43 171.88 L 581.36 170.62 L 590.30 168.75 L 599.23 167.50 L 608.17 166.88 L 617.11 166.25 L 626.04 164.38 L 634.98 163.12 L 643.91 162.50 L 652.85 161.88 L 661.79 160.62 L 670.72 160.00 L 679.66 158.75 L 706.47 157.50 L 715.40 155.62 L 724.34 154.38 L 733.28 153.12 L 751.15 152.50 L 760.09 148.75 L 769.02 148.12 L 777.96 146.88 L 795.83 145.62 L 822.64 145.00 L 831.57 144.38 L 840.51 143.75 L 867.32 143.12 L 876.26 142.50 L 885.19 141.88 L 894.13 140.00 L 903.06 139.38 L 912.00 138.75" fill="none" stroke="#ffa657" stroke-width="3" stroke-linejoin="round" stroke-linecap="round"/>
<circle cx="912.00" cy="138.75" r="4.5" fill="#ffa657"/>
</svg>
